<?xml version="1.0" encoding="UTF-8"?>
<svg width="1850" height="1990" xmlns="http://www.w3.org/2000/svg" xmlns:xlink="http://www.w3.org/1999/xlink" version="1.1">
  <defs>
    <symbol id="NAND2" viewBox="0 0 512 512">
      <path fill="#000000" stroke="#000000" stroke-width="8" stroke-linejoin="round" d="M105 105v302h151c148 0 148-302 0-302H105zm-89 46v18h150v-18H16zm374 82c-12.8 0-23 10.2-23 23s10.2 23 23 23 23-10.2 23-23-10.2-23-23-23zm40 14c.6 2.9 1 5.9 1 9 0 3.1-.4 6.1-1 9h66v-18h-66zM16 343v18h150v-18H16z"/>
    </symbol>
    <symbol id="LED" viewBox="0 0 512 512">
      <path fill="#000000" stroke="#000000" stroke-width="8" stroke-linejoin="round" d="M 256,80 C 208,80 170,118 170,166 v 100 h 172 V 166 C 342,118 304,80 256,80 Z M 230,266 v 80 h 52 v -80 z M 210,346 v 20 h 92 v -20 z"/>
    </symbol>
    <symbol id="IC14" viewBox="0 0 512 512">
      <path fill="none" stroke="none" stroke-width="8" stroke-linejoin="round" d="M 60 10 A 10 10 0 0 0 80 10"/>
    </symbol>
  </defs>
  <text x="20" y="30" font-family="Arial" font-size="20" font-weight="bold" fill="black">Circuit Diagram</text>
    <rect x="50" y="150" width="120" height="500" fill="none" stroke="black" stroke-width="2" rx="5"/>
    <text x="110" y="175" font-family="Arial" font-size="16" font-weight="bold" text-anchor="middle" fill="black">INPUTS</text>
    <rect x="90" y="200" width="40" height="40" fill="none" stroke="black" stroke-width="2"/>
    <text x="110" y="225" font-family="Arial" font-size="16" font-weight="bold" text-anchor="middle" fill="black">A</text>
    <rect x="90" y="255" width="40" height="40" fill="none" stroke="black" stroke-width="2"/>
    <text x="110" y="280" font-family="Arial" font-size="16" font-weight="bold" text-anchor="middle" fill="black">B</text>
    <rect x="90" y="310" width="40" height="40" fill="none" stroke="black" stroke-width="2"/>
    <text x="110" y="335" font-family="Arial" font-size="16" font-weight="bold" text-anchor="middle" fill="black">C</text>
    <rect x="90" y="365" width="40" height="40" fill="none" stroke="black" stroke-width="2"/>
    <text x="110" y="390" font-family="Arial" font-size="16" font-weight="bold" text-anchor="middle" fill="black">D</text>
    <rect x="90" y="420" width="40" height="40" fill="none" stroke="black" stroke-width="2"/>
    <text x="110" y="445" font-family="Arial" font-size="16" font-weight="bold" text-anchor="middle" fill="black">E</text>
    <rect x="90" y="475" width="40" height="40" fill="none" stroke="black" stroke-width="2"/>
    <text x="110" y="500" font-family="Arial" font-size="16" font-weight="bold" text-anchor="middle" fill="black">F</text>
    <rect x="90" y="530" width="40" height="40" fill="none" stroke="black" stroke-width="2"/>
    <text x="110" y="555" font-family="Arial" font-size="16" font-weight="bold" text-anchor="middle" fill="black">G</text>
    <rect x="90" y="585" width="40" height="40" fill="none" stroke="black" stroke-width="2"/>
    <text x="110" y="610" font-family="Arial" font-size="16" font-weight="bold" text-anchor="middle" fill="black">H</text>
    <rect x="250" y="100" width="220" height="480" fill="none" stroke="black" stroke-width="2" rx="5"/>
    <text x="360" y="125" font-family="Arial" font-size="16" font-weight="bold" text-anchor="middle" fill="black">74LS00</text>
    <g>
      <g transform="translate(320, 150) scale(0.15625, 0.15625)">
        <path d="M105 105v302h151c148 0 148-302 0-302H105zm-89 46v18h150v-18H16zm374 82c-12.8 0-23 10.2-23 23s10.2 23 23 23 23-10.2 23-23-10.2-23-23-23zm40 14c.6 2.9 1 5.9 1 9 0 3.1-.4 6.1-1 9h66v-18h-66zM16 343v18h150v-18H16z" fill="#000000" stroke="#000000" stroke-width="8" stroke-linejoin="round"/>
      </g>
      <text x="317.5" y="173.0" font-family="Arial" font-size="12" font-weight="bold" text-anchor="end" fill="blue">1</text>
      <text x="317.5" y="203.0" font-family="Arial" font-size="12" font-weight="bold" text-anchor="end" fill="blue">2</text>
      <text x="402.5" y="188.0" font-family="Arial" font-size="12" font-weight="bold" text-anchor="start" fill="green">3</text>
      <text x="360" y="245" font-family="Arial" font-size="13" font-weight="bold" text-anchor="middle" fill="black">A</text>
    </g>
    <g>
      <g transform="translate(320, 250) scale(0.15625, 0.15625)">
        <path d="M105 105v302h151c148 0 148-302 0-302H105zm-89 46v18h150v-18H16zm374 82c-12.8 0-23 10.2-23 23s10.2 23 23 23 23-10.2 23-23-10.2-23-23-23zm40 14c.6 2.9 1 5.9 1 9 0 3.1-.4 6.1-1 9h66v-18h-66zM16 343v18h150v-18H16z" fill="#000000" stroke="#000000" stroke-width="8" stroke-linejoin="round"/>
      </g>
      <text x="317.5" y="273.0" font-family="Arial" font-size="12" font-weight="bold" text-anchor="end" fill="blue">4</text>
      <text x="317.5" y="303.0" font-family="Arial" font-size="12" font-weight="bold" text-anchor="end" fill="blue">5</text>
      <text x="402.5" y="288.0" font-family="Arial" font-size="12" font-weight="bold" text-anchor="start" fill="green">6</text>
      <text x="360" y="345" font-family="Arial" font-size="13" font-weight="bold" text-anchor="middle" fill="black">B</text>
    </g>
    <g>
      <g transform="translate(320, 350) scale(0.15625, 0.15625)">
        <path d="M105 105v302h151c148 0 148-302 0-302H105zm-89 46v18h150v-18H16zm374 82c-12.8 0-23 10.2-23 23s10.2 23 23 23 23-10.2 23-23-10.2-23-23-23zm40 14c.6 2.9 1 5.9 1 9 0 3.1-.4 6.1-1 9h66v-18h-66zM16 343v18h150v-18H16z" fill="#000000" stroke="#000000" stroke-width="8" stroke-linejoin="round"/>
      </g>
      <text x="317.5" y="373.0" font-family="Arial" font-size="12" font-weight="bold" text-anchor="end" fill="blue">9</text>
      <text x="317.5" y="403.0" font-family="Arial" font-size="12" font-weight="bold" text-anchor="end" fill="blue">10</text>
      <text x="402.5" y="388.0" font-family="Arial" font-size="12" font-weight="bold" text-anchor="start" fill="green">8</text>
      <text x="360" y="445" font-family="Arial" font-size="13" font-weight="bold" text-anchor="middle" fill="black">C</text>
    </g>
    <g>
      <g transform="translate(320, 450) scale(0.15625, 0.15625)">
        <path d="M105 105v302h151c148 0 148-302 0-302H105zm-89 46v18h150v-18H16zm374 82c-12.8 0-23 10.2-23 23s10.2 23 23 23 23-10.2 23-23-10.2-23-23-23zm40 14c.6 2.9 1 5.9 1 9 0 3.1-.4 6.1-1 9h66v-18h-66zM16 343v18h150v-18H16z" fill="#000000" stroke="#000000" stroke-width="8" stroke-linejoin="round"/>
      </g>
      <text x="317.5" y="473.0" font-family="Arial" font-size="12" font-weight="bold" text-anchor="end" fill="blue">12</text>
      <text x="317.5" y="503.0" font-family="Arial" font-size="12" font-weight="bold" text-anchor="end" fill="blue">13</text>
      <text x="402.5" y="488.0" font-family="Arial" font-size="12" font-weight="bold" text-anchor="start" fill="green">11</text>
      <text x="360" y="545" font-family="Arial" font-size="13" font-weight="bold" text-anchor="middle" fill="black">D</text>
    </g>
    <text x="260" y="570" font-family="Arial" font-size="12" fill="red">VCC:14</text>
    <text x="400" y="570" font-family="Arial" font-size="12" fill="blue">GND:7</text>
    <rect x="650" y="100" width="220" height="480" fill="none" stroke="black" stroke-width="2" rx="5"/>
    <text x="760" y="125" font-family="Arial" font-size="16" font-weight="bold" text-anchor="middle" fill="black">74LS00</text>
    <g>
      <g transform="translate(720, 150) scale(0.15625, 0.15625)">
        <path d="M105 105v302h151c148 0 148-302 0-302H105zm-89 46v18h150v-18H16zm374 82c-12.8 0-23 10.2-23 23s10.2 23 23 23 23-10.2 23-23-10.2-23-23-23zm40 14c.6 2.9 1 5.9 1 9 0 3.1-.4 6.1-1 9h66v-18h-66zM16 343v18h150v-18H16z" fill="#000000" stroke="#000000" stroke-width="8" stroke-linejoin="round"/>
      </g>
      <text x="717.5" y="173.0" font-family="Arial" font-size="12" font-weight="bold" text-anchor="end" fill="blue">1</text>
      <text x="717.5" y="203.0" font-family="Arial" font-size="12" font-weight="bold" text-anchor="end" fill="blue">2</text>
      <text x="802.5" y="188.0" font-family="Arial" font-size="12" font-weight="bold" text-anchor="start" fill="green">3</text>
      <text x="760" y="245" font-family="Arial" font-size="13" font-weight="bold" text-anchor="middle" fill="black">A</text>
    </g>
    <g>
      <g transform="translate(720, 250) scale(0.15625, 0.15625)">
        <path d="M105 105v302h151c148 0 148-302 0-302H105zm-89 46v18h150v-18H16zm374 82c-12.8 0-23 10.2-23 23s10.2 23 23 23 23-10.2 23-23-10.2-23-23-23zm40 14c.6 2.9 1 5.9 1 9 0 3.1-.4 6.1-1 9h66v-18h-66zM16 343v18h150v-18H16z" fill="#000000" stroke="#000000" stroke-width="8" stroke-linejoin="round"/>
      </g>
      <text x="717.5" y="273.0" font-family="Arial" font-size="12" font-weight="bold" text-anchor="end" fill="blue">4</text>
      <text x="717.5" y="303.0" font-family="Arial" font-size="12" font-weight="bold" text-anchor="end" fill="blue">5</text>
      <text x="802.5" y="288.0" font-family="Arial" font-size="12" font-weight="bold" text-anchor="start" fill="green">6</text>
      <text x="760" y="345" font-family="Arial" font-size="13" font-weight="bold" text-anchor="middle" fill="black">B</text>
    </g>
    <g>
      <g transform="translate(720, 350) scale(0.15625, 0.15625)">
        <path d="M105 105v302h151c148 0 148-302 0-302H105zm-89 46v18h150v-18H16zm374 82c-12.8 0-23 10.2-23 23s10.2 23 23 23 23-10.2 23-23-10.2-23-23-23zm40 14c.6 2.9 1 5.9 1 9 0 3.1-.4 6.1-1 9h66v-18h-66zM16 343v18h150v-18H16z" fill="#000000" stroke="#000000" stroke-width="8" stroke-linejoin="round"/>
      </g>
      <text x="717.5" y="373.0" font-family="Arial" font-size="12" font-weight="bold" text-anchor="end" fill="blue">9</text>
      <text x="717.5" y="403.0" font-family="Arial" font-size="12" font-weight="bold" text-anchor="end" fill="blue">10</text>
      <text x="802.5" y="388.0" font-family="Arial" font-size="12" font-weight="bold" text-anchor="start" fill="green">8</text>
      <text x="760" y="445" font-family="Arial" font-size="13" font-weight="bold" text-anchor="middle" fill="black">C</text>
    </g>
    <g>
      <g transform="translate(720, 450) scale(0.15625, 0.15625)">
        <path d="M105 105v302h151c148 0 148-302 0-302H105zm-89 46v18h150v-18H16zm374 82c-12.8 0-23 10.2-23 23s10.2 23 23 23 23-10.2 23-23-10.2-23-23-23zm40 14c.6 2.9 1 5.9 1 9 0 3.1-.4 6.1-1 9h66v-18h-66zM16 343v18h150v-18H16z" fill="#000000" stroke="#000000" stroke-width="8" stroke-linejoin="round"/>
      </g>
      <text x="717.5" y="473.0" font-family="Arial" font-size="12" font-weight="bold" text-anchor="end" fill="blue">12</text>
      <text x="717.5" y="503.0" font-family="Arial" font-size="12" font-weight="bold" text-anchor="end" fill="blue">13</text>
      <text x="802.5" y="488.0" font-family="Arial" font-size="12" font-weight="bold" text-anchor="start" fill="green">11</text>
      <text x="760" y="545" font-family="Arial" font-size="13" font-weight="bold" text-anchor="middle" fill="black">D</text>
    </g>
    <text x="660" y="570" font-family="Arial" font-size="12" fill="red">VCC:14</text>
    <text x="800" y="570" font-family="Arial" font-size="12" fill="blue">GND:7</text>
    <rect x="1050" y="100" width="270.0" height="410.0" fill="none" stroke="black" stroke-width="2" rx="5"/>
    <text x="1185.0" y="125" font-family="Arial" font-size="16" font-weight="bold" text-anchor="middle" fill="black">CUSTOM_MUX</text>
    <g transform="translate(1080, 150) scale(1.5)">
      <ns0:rect xmlns:ns0="http://www.w3.org/2000/svg" x="20" y="10" width="100" height="200" rx="5" ry="5" fill="#000000" stroke="#000000" stroke-width="2" />
    
      <ns0:rect xmlns:ns0="http://www.w3.org/2000/svg" x="30" y="40" width="80" height="140" rx="2" ry="2" fill="#333333" stroke="none" />
    
      <ns0:circle xmlns:ns0="http://www.w3.org/2000/svg" cx="30" cy="30" r="4" fill="#CCCCCC" stroke="none" />
    
      <ns0:path xmlns:ns0="http://www.w3.org/2000/svg" d="M 60 10 A 10 10 0 0 0 80 10" fill="none" stroke="#808080" stroke-width="2" />
    
      <ns0:text xmlns:ns0="http://www.w3.org/2000/svg" x="70" y="110" font-family="monospace" font-size="12" text-anchor="middle" alignment-baseline="middle" fill="#FFFFFF" />
    
    
      <ns0:path xmlns:ns0="http://www.w3.org/2000/svg" d="M0 30 H20 M0 55 H20 M0 80 H20 M0 105 H20 M0 130 H20 M0 155 H20 M0 180 H20" stroke="#000000" stroke-width="2" />
    
    
      <ns0:path xmlns:ns0="http://www.w3.org/2000/svg" d="M120 180 H140 M120 155 H140 M120 130 H140 M120 105 H140 M120 80 H140 M120 55 H140 M120 30 H140" stroke="#000000" stroke-width="2" />
  
      <text x="70.0" y="110.0" font-family="monospace" font-size="12" text-anchor="middle" alignment-baseline="middle" fill="#FFFFFF">CUSTOM_MUX</text>
    </g>
    <text x="1068.0" y="199.0" font-family="Arial" font-size="10" font-weight="bold" text-anchor="end" fill="#2196F3">1</text>
    <text x="1068.0" y="236.5" font-family="Arial" font-size="10" font-weight="bold" text-anchor="end" fill="#2196F3">2</text>
    <text x="1068.0" y="274.0" font-family="Arial" font-size="10" font-weight="bold" text-anchor="end" fill="#2196F3">3</text>
    <text x="1068.0" y="311.5" font-family="Arial" font-size="10" font-weight="bold" text-anchor="end" fill="#2196F3">4</text>
    <text x="1068.0" y="349.0" font-family="Arial" font-size="10" font-weight="bold" text-anchor="end" fill="#2196F3">5</text>
    <text x="1068.0" y="386.5" font-family="Arial" font-size="10" font-weight="bold" text-anchor="end" fill="#2196F3">6</text>
    <text x="1068.0" y="424.0" font-family="Arial" font-size="10" font-weight="bold" text-anchor="end" fill="#607D8B">GND</text>
    <text x="1302.0" y="199.0" font-family="Arial" font-size="10" font-weight="bold" text-anchor="start" fill="#FF5722">VCC</text>
    <text x="1302.0" y="236.5" font-family="Arial" font-size="10" font-weight="bold" text-anchor="start" fill="#4CAF50">13</text>
    <text x="1060" y="500.0" font-family="Arial" font-size="12" fill="red">VCC:14</text>
    <text x="1250.0" y="500.0" font-family="Arial" font-size="12" fill="blue">GND:7</text>
    <rect x="650" y="600" width="270.0" height="440.0" fill="none" stroke="black" stroke-width="2" rx="5"/>
    <text x="785.0" y="625" font-family="Arial" font-size="16" font-weight="bold" text-anchor="middle" fill="black">74LS138</text>
    <g transform="translate(680, 650) scale(1.5)">
      <ns0:rect xmlns:ns0="http://www.w3.org/2000/svg" x="20" y="10" width="100" height="220" rx="5" ry="5" fill="#000000" stroke="#000000" stroke-width="2" />
    
      <ns0:rect xmlns:ns0="http://www.w3.org/2000/svg" x="30" y="40" width="80" height="160" rx="2" ry="2" fill="#333333" stroke="none" />
    
      <ns0:circle xmlns:ns0="http://www.w3.org/2000/svg" cx="30" cy="30" r="4" fill="#CCCCCC" stroke="none" />
    
      <ns0:path xmlns:ns0="http://www.w3.org/2000/svg" d="M 60 10 A 10 10 0 0 0 80 10" fill="none" stroke="#808080" stroke-width="2" />
    
      <ns0:text xmlns:ns0="http://www.w3.org/2000/svg" x="70" y="120" font-family="monospace" font-size="12" text-anchor="middle" alignment-baseline="middle" fill="#FFFFFF" />
    
    
      <ns0:path xmlns:ns0="http://www.w3.org/2000/svg" d="M0 30 H20 M0 55 H20 M0 80 H20 M0 105 H20 M0 130 H20 M0 155 H20 M0 180 H20 M0 205 H20" stroke="#000000" stroke-width="2" />
    
    
      <ns0:path xmlns:ns0="http://www.w3.org/2000/svg" d="M120 205 H140 M120 180 H140 M120 155 H140 M120 130 H140 M120 105 H140 M120 80 H140 M120 55 H140 M120 30 H140" stroke="#000000" stroke-width="2" />
  
      <text x="70.0" y="120.0" font-family="monospace" font-size="12" text-anchor="middle" alignment-baseline="middle" fill="#FFFFFF">74LS138</text>
    </g>
    <text x="668.0" y="699.0" font-family="Arial" font-size="10" font-weight="bold" text-anchor="end" fill="#2196F3">1</text>
    <text x="668.0" y="736.5" font-family="Arial" font-size="10" font-weight="bold" text-anchor="end" fill="#2196F3">2</text>
    <text x="668.0" y="774.0" font-family="Arial" font-size="10" font-weight="bold" text-anchor="end" fill="#2196F3">3</text>
    <text x="668.0" y="961.5" font-family="Arial" font-size="10" font-weight="bold" text-anchor="end" fill="#607D8B">GND</text>
    <text x="902.0" y="699.0" font-family="Arial" font-size="10" font-weight="bold" text-anchor="start" fill="#FF5722">VCC</text>
    <text x="902.0" y="736.5" font-family="Arial" font-size="10" font-weight="bold" text-anchor="start" fill="#4CAF50">15</text>
    <text x="660" y="1030.0" font-family="Arial" font-size="12" fill="red">VCC:16</text>
    <text x="850.0" y="1030.0" font-family="Arial" font-size="12" fill="blue">GND:8</text>
<path id="wire-0" d="M 130 220 L 180 220 L 180 180 L 240 180 L 240 175.0 L 322.5 175.0" stroke="#e6194b" fill="none" stroke-width="2.5" stroke-linecap="round" stroke-linejoin="round"/>
<path id="wire-1" d="M 130 275 L 180 275 L 180 230 L 240 230 L 240 205.0 L 322.5 205.0" stroke="#3cb44b" fill="none" stroke-width="2.5" stroke-linecap="round" stroke-linejoin="round"/>
<path id="wire-2" d="M 130 330 L 240 330 L 240 590 L 640 590 L 640 275.0 L 722.5 275.0" stroke="#ffe119" fill="none" stroke-width="2.5" stroke-linecap="round" stroke-linejoin="round"/>
<path id="wire-3" d="M 130 385 L 180 385 L 180 380 L 230 380 L 230 600 L 630 600 L 630 300 L 640 300 L 640 305.0 L 722.5 305.0" stroke="#4363d8" fill="none" stroke-width="2.5" stroke-linecap="round" stroke-linejoin="round"/>
<path id="wire-4" d="M 397.5 190.0 L 640 190 L 640 90 L 1040 90 L 1040 195.0 L 1080.0 195.0" stroke="#f58231" fill="none" stroke-width="2.5" stroke-linecap="round" stroke-linejoin="round"/>
<path id="wire-5" d="M 797.5 290.0 L 880 290.0 L 880 230 L 1040 230 L 1040 232.5 L 1080.0 232.5" stroke="#911eb4" fill="none" stroke-width="2.5" stroke-linecap="round" stroke-linejoin="round"/>
<path id="wire-6" d="M 130 440 L 180 440 L 180 290 L 230 290 L 230 80 L 1030 80 L 1030 270 L 1080.0 270.0" stroke="#46f0f0" fill="none" stroke-width="2.5" stroke-linecap="round" stroke-linejoin="round"/>
<path id="wire-7" d="M 130 495 L 180 495 L 180 450 L 220 450 L 220 70 L 1020 70 L 1020 310 L 1040 310 L 1040 307.5 L 1080.0 307.5" stroke="#f032e6" fill="none" stroke-width="2.5" stroke-linecap="round" stroke-linejoin="round"/>
<path id="wire-8" d="M 130 550 L 220 550 L 220 1050 L 1040 1050 L 1040 345.0 L 1080.0 345.0" stroke="#bcf60c" fill="none" stroke-width="2.5" stroke-linecap="round" stroke-linejoin="round"/>
<path id="wire-9" d="M 130 605 L 180 605 L 180 600 L 210 600 L 210 1060 L 1030 1060 L 1030 380 L 1040 380 L 1040 382.5 L 1080.0 382.5" stroke="#fabebe" fill="none" stroke-width="2.5" stroke-linecap="round" stroke-linejoin="round"/>
<path id="wire-10" d="M 1290.0 232.5 L 1330 232.5 L 1330 60 L 620 60 L 620 700 L 640 700 L 640 695.0 L 680.0 695.0" stroke="#008080" fill="none" stroke-width="2.5" stroke-linecap="round" stroke-linejoin="round"/>
<path id="wire-11" d="M 397.5 190.0 L 610 190 L 610 730 L 640 730 L 640 732.5 L 680.0 732.5" stroke="#f58231" fill="none" stroke-width="2.5" stroke-linecap="round" stroke-linejoin="round"/>
<path id="wire-12" d="M 797.5 290.0 L 880 290.0 L 880 590 L 930 590 L 930 1070 L 640 1070 L 640 770 L 680.0 770.0" stroke="#911eb4" fill="none" stroke-width="2.5" stroke-linecap="round" stroke-linejoin="round"/>
<path id="wire-13" d="M 890.0 732.5 L 930 732.5 L 930 730 L 1490 730 L 1490 40 L 1575 40 L 1575 114.2578125" stroke="#e6beff" fill="none" stroke-width="2.5" stroke-linecap="round" stroke-linejoin="round"/>
<path id="wire-14" d="M 1290.0 232.5 L 1330 232.5 L 1330 260 L 1575 260 L 1575 184.2578125" stroke="#008080" fill="none" stroke-width="2.5" stroke-linecap="round" stroke-linejoin="round"/>
    <rect x="1500" y="50" width="150" height="200" fill="none" stroke="black" stroke-width="2" rx="5"/>
    <text x="1575" y="75" font-family="Arial" font-size="16" font-weight="bold" text-anchor="middle" fill="black">OUTPUTS</text>
    <g transform="rotate(180, 1575, 125)">
      <g transform="translate(1550, 100) scale(0.09765625, 0.09765625)">
        <path d="M 256,80 C 208,80 170,118 170,166 v 100 h 172 V 166 C 342,118 304,80 256,80 Z M 230,266 v 80 h 52 v -80 z M 210,346 v 20 h 92 v -20 z" fill="#000000" stroke="#000000" stroke-width="8" stroke-linejoin="round"/>
      </g>
    </g>
    <text x="1575" y="165" font-family="Arial" font-size="12" font-weight="bold" text-anchor="middle" fill="green">OUT1</text>
    <g transform="rotate(180, 1575, 195)">
      <g transform="translate(1550, 170) scale(0.09765625, 0.09765625)">
        <path d="M 256,80 C 208,80 170,118 170,166 v 100 h 172 V 166 C 342,118 304,80 256,80 Z M 230,266 v 80 h 52 v -80 z M 210,346 v 20 h 92 v -20 z" fill="#000000" stroke="#000000" stroke-width="8" stroke-linejoin="round"/>
      </g>
    </g>
    <text x="1575" y="235" font-family="Arial" font-size="12" font-weight="bold" text-anchor="middle" fill="green">OUT2</text>
</svg>