<?xml version="1.0" encoding="UTF-8"?>
<svg width="2500" height="1753" xmlns="http://www.w3.org/2000/svg" xmlns:xlink="http://www.w3.org/1999/xlink" version="1.1">
  <defs>
    <symbol id="NOR2" viewBox="0 0 512 512">
      <path fill="#000000" stroke="#000000" stroke-width="8" stroke-linejoin="round" d="M116.6 105c40 45.9 60.4 98.4 60.4 151 0 52.6-20.4 105.1-60.4 151H192c34.1 0 81.9-34 119.3-71.4 18.7-18.6 35.1-37.9 46.6-53.3 5.8-7.6 10.4-14.4 13.4-19.4 1.4-2.5 2.5-4.7 3.2-6.1.1-.4.2-.5.2-.8 0-.3-.1-.5-.2-.9-.6-1.4-1.7-3.5-3.2-6-3-5.1-7.5-11.8-13.2-19.5-11.3-15.4-27.5-34.6-46.1-53.2C274.8 139 227.1 105 192 105h-75.4zM16 151v18h202.2c-3-6.1-6.3-12.1-9.9-18H16zm320 82c-12.8 0-23 10.2-23 23s10.2 23 23 23 23-10.2 23-23-10.2-23-23-23zm40 14c.6 2.9 1 5.9 1 9 0 3.1-.4 6.1-1 9h120v-18h-120zM16 343v18h192.3c3.6-5.9 6.9-11.9 9.9-18H16z"/>
    </symbol>
    <symbol id="IC16" viewBox="0 0 140 240">
<ns0:g xmlns:ns0="http://www.w3.org/2000/svg">
    <ns0:rect x="20" y="10" width="100" height="220" rx="5" ry="5" fill="#000000" stroke="#000000" stroke-width="2" />
    <ns0:rect x="30" y="40" width="80" height="160" rx="2" ry="2" fill="#333333" stroke="none" />
    <ns0:circle cx="30" cy="30" r="4" fill="#CCCCCC" stroke="none" />
    <ns0:path d="M 60 10 A 10 10 0 0 0 80 10" fill="none" stroke="#808080" stroke-width="2" />
    <ns0:text x="70" y="120" font-family="monospace" font-size="12" text-anchor="middle" alignment-baseline="middle" fill="#FFFFFF" />
    
    <ns0:path d="M0 30 H20 M0 55 H20 M0 80 H20 M0 105 H20 M0 130 H20 M0 155 H20 M0 180 H20 M0 205 H20" stroke="#000000" stroke-width="2" />
    
    <ns0:path d="M120 205 H140 M120 180 H140 M120 155 H140 M120 130 H140 M120 105 H140 M120 80 H140 M120 55 H140 M120 30 H140" stroke="#000000" stroke-width="2" />
  </ns0:g>

    </symbol>
    <symbol id="NAND2" viewBox="0 0 512 512">
      <path fill="#000000" stroke="#000000" stroke-width="8" stroke-linejoin="round" d="M105 105v302h151c148 0 148-302 0-302H105zm-89 46v18h150v-18H16zm374 82c-12.8 0-23 10.2-23 23s10.2 23 23 23 23-10.2 23-23-10.2-23-23-23zm40 14c.6 2.9 1 5.9 1 9 0 3.1-.4 6.1-1 9h66v-18h-66zM16 343v18h150v-18H16z"/>
    </symbol>
    <symbol id="NOT1" viewBox="0 0 512 512">
      <path fill="#000000" stroke="#000000" stroke-width="8" stroke-linejoin="round" d="M 105,111.3 V 400.7 L 365.5,256 Z M 16,247 v 18 h 150 v -18 z m 320,-14 c -12.8,0 -23,10.2 -23,23 0,12.8 10.2,23 23,23 12.8,0 23,-10.2 23,-23 0,-12.8 -10.2,-23 -23,-23 z m 40,14 c 0.6,2.9 1,5.9 1,9 0,3.1 -0.4,6.1 -1,9 h 120 v -18 z"/>
    </symbol>
    <symbol id="LED" viewBox="0 0 512 512">
      <path fill="#000000" stroke="#000000" stroke-width="8" stroke-linejoin="round" d="M 256,80 C 208,80 170,118 170,166 v 100 h 172 V 166 C 342,118 304,80 256,80 Z M 230,266 v 80 h 52 v -80 z M 210,346 v 20 h 92 v -20 z"/>
    </symbol>
  </defs>
  <text x="20" y="30" font-family="Arial" font-size="20" font-weight="bold" fill="black">Circuit Diagram</text>
    <rect x="50" y="150" width="120" height="280" fill="none" stroke="black" stroke-width="2" rx="5"/>
    <text x="110" y="175" font-family="Arial" font-size="16" font-weight="bold" text-anchor="middle" fill="black">INPUTS</text>
    <rect x="90" y="200" width="40" height="40" fill="none" stroke="black" stroke-width="2"/>
    <text x="110" y="225" font-family="Arial" font-size="16" font-weight="bold" text-anchor="middle" fill="black">A0</text>
    <rect x="90" y="255" width="40" height="40" fill="none" stroke="black" stroke-width="2"/>
    <text x="110" y="280" font-family="Arial" font-size="16" font-weight="bold" text-anchor="middle" fill="black">A1</text>
    <rect x="90" y="310" width="40" height="40" fill="none" stroke="black" stroke-width="2"/>
    <text x="110" y="335" font-family="Arial" font-size="16" font-weight="bold" text-anchor="middle" fill="black">A2</text>
    <rect x="90" y="365" width="40" height="40" fill="none" stroke="black" stroke-width="2"/>
    <text x="110" y="390" font-family="Arial" font-size="16" font-weight="bold" text-anchor="middle" fill="black">A3</text>
    <rect x="650" y="100" width="220" height="680" fill="none" stroke="black" stroke-width="2" rx="5"/>
    <text x="760" y="125" font-family="Arial" font-size="16" font-weight="bold" text-anchor="middle" fill="black">74LS04</text>
    <g>
      <g transform="translate(720, 150) scale(0.15625, 0.15625)">
        <path d="M 105,111.3 V 400.7 L 365.5,256 Z M 16,247 v 18 h 150 v -18 z m 320,-14 c -12.8,0 -23,10.2 -23,23 0,12.8 10.2,23 23,23 12.8,0 23,-10.2 23,-23 0,-12.8 -10.2,-23 -23,-23 z m 40,14 c 0.6,2.9 1,5.9 1,9 0,3.1 -0.4,6.1 -1,9 h 120 v -18 z" fill="#000000" stroke="#000000" stroke-width="8" stroke-linejoin="round"/>
      </g>
      <text x="717.5" y="188.0" font-family="Arial" font-size="12" font-weight="bold" text-anchor="end" fill="blue">1</text>
      <text x="802.5" y="188.0" font-family="Arial" font-size="12" font-weight="bold" text-anchor="start" fill="green">2</text>
      <text x="760" y="245" font-family="Arial" font-size="13" font-weight="bold" text-anchor="middle" fill="black">A</text>
    </g>
    <g>
      <g transform="translate(720, 250) scale(0.15625, 0.15625)">
        <path d="M 105,111.3 V 400.7 L 365.5,256 Z M 16,247 v 18 h 150 v -18 z m 320,-14 c -12.8,0 -23,10.2 -23,23 0,12.8 10.2,23 23,23 12.8,0 23,-10.2 23,-23 0,-12.8 -10.2,-23 -23,-23 z m 40,14 c 0.6,2.9 1,5.9 1,9 0,3.1 -0.4,6.1 -1,9 h 120 v -18 z" fill="#000000" stroke="#000000" stroke-width="8" stroke-linejoin="round"/>
      </g>
      <text x="717.5" y="288.0" font-family="Arial" font-size="12" font-weight="bold" text-anchor="end" fill="blue">3</text>
      <text x="802.5" y="288.0" font-family="Arial" font-size="12" font-weight="bold" text-anchor="start" fill="green">4</text>
      <text x="760" y="345" font-family="Arial" font-size="13" font-weight="bold" text-anchor="middle" fill="black">B</text>
    </g>
    <g>
      <g transform="translate(720, 350) scale(0.15625, 0.15625)">
        <path d="M 105,111.3 V 400.7 L 365.5,256 Z M 16,247 v 18 h 150 v -18 z m 320,-14 c -12.8,0 -23,10.2 -23,23 0,12.8 10.2,23 23,23 12.8,0 23,-10.2 23,-23 0,-12.8 -10.2,-23 -23,-23 z m 40,14 c 0.6,2.9 1,5.9 1,9 0,3.1 -0.4,6.1 -1,9 h 120 v -18 z" fill="#000000" stroke="#000000" stroke-width="8" stroke-linejoin="round"/>
      </g>
      <text x="717.5" y="388.0" font-family="Arial" font-size="12" font-weight="bold" text-anchor="end" fill="blue">5</text>
      <text x="802.5" y="388.0" font-family="Arial" font-size="12" font-weight="bold" text-anchor="start" fill="green">6</text>
      <text x="760" y="445" font-family="Arial" font-size="13" font-weight="bold" text-anchor="middle" fill="black">C</text>
    </g>
    <g>
      <g transform="translate(720, 450) scale(0.15625, 0.15625)">
        <path d="M 105,111.3 V 400.7 L 365.5,256 Z M 16,247 v 18 h 150 v -18 z m 320,-14 c -12.8,0 -23,10.2 -23,23 0,12.8 10.2,23 23,23 12.8,0 23,-10.2 23,-23 0,-12.8 -10.2,-23 -23,-23 z m 40,14 c 0.6,2.9 1,5.9 1,9 0,3.1 -0.4,6.1 -1,9 h 120 v -18 z" fill="#000000" stroke="#000000" stroke-width="8" stroke-linejoin="round"/>
      </g>
      <text x="717.5" y="488.0" font-family="Arial" font-size="12" font-weight="bold" text-anchor="end" fill="blue">9</text>
      <text x="802.5" y="488.0" font-family="Arial" font-size="12" font-weight="bold" text-anchor="start" fill="green">8</text>
      <text x="760" y="545" font-family="Arial" font-size="13" font-weight="bold" text-anchor="middle" fill="black">D</text>
    </g>
    <g>
      <g transform="translate(720, 550) scale(0.15625, 0.15625)">
        <path d="M 105,111.3 V 400.7 L 365.5,256 Z M 16,247 v 18 h 150 v -18 z m 320,-14 c -12.8,0 -23,10.2 -23,23 0,12.8 10.2,23 23,23 12.8,0 23,-10.2 23,-23 0,-12.8 -10.2,-23 -23,-23 z m 40,14 c 0.6,2.9 1,5.9 1,9 0,3.1 -0.4,6.1 -1,9 h 120 v -18 z" fill="#000000" stroke="#000000" stroke-width="8" stroke-linejoin="round"/>
      </g>
      <text x="717.5" y="588.0" font-family="Arial" font-size="12" font-weight="bold" text-anchor="end" fill="blue">11</text>
      <text x="802.5" y="588.0" font-family="Arial" font-size="12" font-weight="bold" text-anchor="start" fill="green">10</text>
      <text x="760" y="645" font-family="Arial" font-size="13" font-weight="bold" text-anchor="middle" fill="black">E</text>
    </g>
    <g>
      <g transform="translate(720, 650) scale(0.15625, 0.15625)">
        <path d="M 105,111.3 V 400.7 L 365.5,256 Z M 16,247 v 18 h 150 v -18 z m 320,-14 c -12.8,0 -23,10.2 -23,23 0,12.8 10.2,23 23,23 12.8,0 23,-10.2 23,-23 0,-12.8 -10.2,-23 -23,-23 z m 40,14 c 0.6,2.9 1,5.9 1,9 0,3.1 -0.4,6.1 -1,9 h 120 v -18 z" fill="#000000" stroke="#000000" stroke-width="8" stroke-linejoin="round"/>
      </g>
      <text x="717.5" y="688.0" font-family="Arial" font-size="12" font-weight="bold" text-anchor="end" fill="blue">13</text>
      <text x="802.5" y="688.0" font-family="Arial" font-size="12" font-weight="bold" text-anchor="start" fill="green">12</text>
      <text x="760" y="745" font-family="Arial" font-size="13" font-weight="bold" text-anchor="middle" fill="black">F</text>
    </g>
    <text x="660" y="770" font-family="Arial" font-size="12" fill="red">VCC:14</text>
    <text x="800" y="770" font-family="Arial" font-size="12" fill="blue">GND:7</text>
    <rect x="1050" y="100" width="220" height="480" fill="none" stroke="black" stroke-width="2" rx="5"/>
    <text x="1160" y="125" font-family="Arial" font-size="16" font-weight="bold" text-anchor="middle" fill="black">74LS02</text>
    <g>
      <g transform="translate(1120, 150) scale(0.15625, 0.15625)">
        <path d="M116.6 105c40 45.9 60.4 98.4 60.4 151 0 52.6-20.4 105.1-60.4 151H192c34.1 0 81.9-34 119.3-71.4 18.7-18.6 35.1-37.9 46.6-53.3 5.8-7.6 10.4-14.4 13.4-19.4 1.4-2.5 2.5-4.7 3.2-6.1.1-.4.2-.5.2-.8 0-.3-.1-.5-.2-.9-.6-1.4-1.7-3.5-3.2-6-3-5.1-7.5-11.8-13.2-19.5-11.3-15.4-27.5-34.6-46.1-53.2C274.8 139 227.1 105 192 105h-75.4zM16 151v18h202.2c-3-6.1-6.3-12.1-9.9-18H16zm320 82c-12.8 0-23 10.2-23 23s10.2 23 23 23 23-10.2 23-23-10.2-23-23-23zm40 14c.6 2.9 1 5.9 1 9 0 3.1-.4 6.1-1 9h120v-18h-120zM16 343v18h192.3c3.6-5.9 6.9-11.9 9.9-18H16z" fill="#000000" stroke="#000000" stroke-width="8" stroke-linejoin="round"/>
      </g>
      <text x="1117.5" y="173.0" font-family="Arial" font-size="12" font-weight="bold" text-anchor="end" fill="blue">2</text>
      <text x="1117.5" y="203.0" font-family="Arial" font-size="12" font-weight="bold" text-anchor="end" fill="blue">3</text>
      <text x="1202.5" y="188.0" font-family="Arial" font-size="12" font-weight="bold" text-anchor="start" fill="green">1</text>
      <text x="1160" y="245" font-family="Arial" font-size="13" font-weight="bold" text-anchor="middle" fill="black">A</text>
    </g>
    <g>
      <g transform="translate(1120, 250) scale(0.15625, 0.15625)">
        <path d="M116.6 105c40 45.9 60.4 98.4 60.4 151 0 52.6-20.4 105.1-60.4 151H192c34.1 0 81.9-34 119.3-71.4 18.7-18.6 35.1-37.9 46.6-53.3 5.8-7.6 10.4-14.4 13.4-19.4 1.4-2.5 2.5-4.7 3.2-6.1.1-.4.2-.5.2-.8 0-.3-.1-.5-.2-.9-.6-1.4-1.7-3.5-3.2-6-3-5.1-7.5-11.8-13.2-19.5-11.3-15.4-27.5-34.6-46.1-53.2C274.8 139 227.1 105 192 105h-75.4zM16 151v18h202.2c-3-6.1-6.3-12.1-9.9-18H16zm320 82c-12.8 0-23 10.2-23 23s10.2 23 23 23 23-10.2 23-23-10.2-23-23-23zm40 14c.6 2.9 1 5.9 1 9 0 3.1-.4 6.1-1 9h120v-18h-120zM16 343v18h192.3c3.6-5.9 6.9-11.9 9.9-18H16z" fill="#000000" stroke="#000000" stroke-width="8" stroke-linejoin="round"/>
      </g>
      <text x="1117.5" y="273.0" font-family="Arial" font-size="12" font-weight="bold" text-anchor="end" fill="blue">5</text>
      <text x="1117.5" y="303.0" font-family="Arial" font-size="12" font-weight="bold" text-anchor="end" fill="blue">6</text>
      <text x="1202.5" y="288.0" font-family="Arial" font-size="12" font-weight="bold" text-anchor="start" fill="green">4</text>
      <text x="1160" y="345" font-family="Arial" font-size="13" font-weight="bold" text-anchor="middle" fill="black">B</text>
    </g>
    <g>
      <g transform="translate(1120, 350) scale(0.15625, 0.15625)">
        <path d="M116.6 105c40 45.9 60.4 98.4 60.4 151 0 52.6-20.4 105.1-60.4 151H192c34.1 0 81.9-34 119.3-71.4 18.7-18.6 35.1-37.9 46.6-53.3 5.8-7.6 10.4-14.4 13.4-19.4 1.4-2.5 2.5-4.7 3.2-6.1.1-.4.2-.5.2-.8 0-.3-.1-.5-.2-.9-.6-1.4-1.7-3.5-3.2-6-3-5.1-7.5-11.8-13.2-19.5-11.3-15.4-27.5-34.6-46.1-53.2C274.8 139 227.1 105 192 105h-75.4zM16 151v18h202.2c-3-6.1-6.3-12.1-9.9-18H16zm320 82c-12.8 0-23 10.2-23 23s10.2 23 23 23 23-10.2 23-23-10.2-23-23-23zm40 14c.6 2.9 1 5.9 1 9 0 3.1-.4 6.1-1 9h120v-18h-120zM16 343v18h192.3c3.6-5.9 6.9-11.9 9.9-18H16z" fill="#000000" stroke="#000000" stroke-width="8" stroke-linejoin="round"/>
      </g>
      <text x="1117.5" y="373.0" font-family="Arial" font-size="12" font-weight="bold" text-anchor="end" fill="blue">8</text>
      <text x="1117.5" y="403.0" font-family="Arial" font-size="12" font-weight="bold" text-anchor="end" fill="blue">9</text>
      <text x="1202.5" y="388.0" font-family="Arial" font-size="12" font-weight="bold" text-anchor="start" fill="green">10</text>
      <text x="1160" y="445" font-family="Arial" font-size="13" font-weight="bold" text-anchor="middle" fill="black">C</text>
    </g>
    <g>
      <g transform="translate(1120, 450) scale(0.15625, 0.15625)">
        <path d="M116.6 105c40 45.9 60.4 98.4 60.4 151 0 52.6-20.4 105.1-60.4 151H192c34.1 0 81.9-34 119.3-71.4 18.7-18.6 35.1-37.9 46.6-53.3 5.8-7.6 10.4-14.4 13.4-19.4 1.4-2.5 2.5-4.7 3.2-6.1.1-.4.2-.5.2-.8 0-.3-.1-.5-.2-.9-.6-1.4-1.7-3.5-3.2-6-3-5.1-7.5-11.8-13.2-19.5-11.3-15.4-27.5-34.6-46.1-53.2C274.8 139 227.1 105 192 105h-75.4zM16 151v18h202.2c-3-6.1-6.3-12.1-9.9-18H16zm320 82c-12.8 0-23 10.2-23 23s10.2 23 23 23 23-10.2 23-23-10.2-23-23-23zm40 14c.6 2.9 1 5.9 1 9 0 3.1-.4 6.1-1 9h120v-18h-120zM16 343v18h192.3c3.6-5.9 6.9-11.9 9.9-18H16z" fill="#000000" stroke="#000000" stroke-width="8" stroke-linejoin="round"/>
      </g>
      <text x="1117.5" y="473.0" font-family="Arial" font-size="12" font-weight="bold" text-anchor="end" fill="blue">11</text>
      <text x="1117.5" y="503.0" font-family="Arial" font-size="12" font-weight="bold" text-anchor="end" fill="blue">12</text>
      <text x="1202.5" y="488.0" font-family="Arial" font-size="12" font-weight="bold" text-anchor="start" fill="green">13</text>
      <text x="1160" y="545" font-family="Arial" font-size="13" font-weight="bold" text-anchor="middle" fill="black">D</text>
    </g>
    <text x="1060" y="570" font-family="Arial" font-size="12" fill="red">VCC:14</text>
    <text x="1200" y="570" font-family="Arial" font-size="12" fill="blue">GND:7</text>
    <rect x="1450" y="100" width="220" height="480" fill="none" stroke="black" stroke-width="2" rx="5"/>
    <text x="1560" y="125" font-family="Arial" font-size="16" font-weight="bold" text-anchor="middle" fill="black">74LS02</text>
    <g>
      <g transform="translate(1520, 150) scale(0.15625, 0.15625)">
        <path d="M116.6 105c40 45.9 60.4 98.4 60.4 151 0 52.6-20.4 105.1-60.4 151H192c34.1 0 81.9-34 119.3-71.4 18.7-18.6 35.1-37.9 46.6-53.3 5.8-7.6 10.4-14.4 13.4-19.4 1.4-2.5 2.5-4.7 3.2-6.1.1-.4.2-.5.2-.8 0-.3-.1-.5-.2-.9-.6-1.4-1.7-3.5-3.2-6-3-5.1-7.5-11.8-13.2-19.5-11.3-15.4-27.5-34.6-46.1-53.2C274.8 139 227.1 105 192 105h-75.4zM16 151v18h202.2c-3-6.1-6.3-12.1-9.9-18H16zm320 82c-12.8 0-23 10.2-23 23s10.2 23 23 23 23-10.2 23-23-10.2-23-23-23zm40 14c.6 2.9 1 5.9 1 9 0 3.1-.4 6.1-1 9h120v-18h-120zM16 343v18h192.3c3.6-5.9 6.9-11.9 9.9-18H16z" fill="#000000" stroke="#000000" stroke-width="8" stroke-linejoin="round"/>
      </g>
      <text x="1517.5" y="173.0" font-family="Arial" font-size="12" font-weight="bold" text-anchor="end" fill="blue">2</text>
      <text x="1517.5" y="203.0" font-family="Arial" font-size="12" font-weight="bold" text-anchor="end" fill="blue">3</text>
      <text x="1602.5" y="188.0" font-family="Arial" font-size="12" font-weight="bold" text-anchor="start" fill="green">1</text>
      <text x="1560" y="245" font-family="Arial" font-size="13" font-weight="bold" text-anchor="middle" fill="black">A</text>
    </g>
    <g>
      <g transform="translate(1520, 250) scale(0.15625, 0.15625)">
        <path d="M116.6 105c40 45.9 60.4 98.4 60.4 151 0 52.6-20.4 105.1-60.4 151H192c34.1 0 81.9-34 119.3-71.4 18.7-18.6 35.1-37.9 46.6-53.3 5.8-7.6 10.4-14.4 13.4-19.4 1.4-2.5 2.5-4.7 3.2-6.1.1-.4.2-.5.2-.8 0-.3-.1-.5-.2-.9-.6-1.4-1.7-3.5-3.2-6-3-5.1-7.5-11.8-13.2-19.5-11.3-15.4-27.5-34.6-46.1-53.2C274.8 139 227.1 105 192 105h-75.4zM16 151v18h202.2c-3-6.1-6.3-12.1-9.9-18H16zm320 82c-12.8 0-23 10.2-23 23s10.2 23 23 23 23-10.2 23-23-10.2-23-23-23zm40 14c.6 2.9 1 5.9 1 9 0 3.1-.4 6.1-1 9h120v-18h-120zM16 343v18h192.3c3.6-5.9 6.9-11.9 9.9-18H16z" fill="#000000" stroke="#000000" stroke-width="8" stroke-linejoin="round"/>
      </g>
      <text x="1517.5" y="273.0" font-family="Arial" font-size="12" font-weight="bold" text-anchor="end" fill="blue">5</text>
      <text x="1517.5" y="303.0" font-family="Arial" font-size="12" font-weight="bold" text-anchor="end" fill="blue">6</text>
      <text x="1602.5" y="288.0" font-family="Arial" font-size="12" font-weight="bold" text-anchor="start" fill="green">4</text>
      <text x="1560" y="345" font-family="Arial" font-size="13" font-weight="bold" text-anchor="middle" fill="black">B</text>
    </g>
    <g>
      <g transform="translate(1520, 350) scale(0.15625, 0.15625)">
        <path d="M116.6 105c40 45.9 60.4 98.4 60.4 151 0 52.6-20.4 105.1-60.4 151H192c34.1 0 81.9-34 119.3-71.4 18.7-18.6 35.1-37.9 46.6-53.3 5.8-7.6 10.4-14.4 13.4-19.4 1.4-2.5 2.5-4.7 3.2-6.1.1-.4.2-.5.2-.8 0-.3-.1-.5-.2-.9-.6-1.4-1.7-3.5-3.2-6-3-5.1-7.5-11.8-13.2-19.5-11.3-15.4-27.5-34.6-46.1-53.2C274.8 139 227.1 105 192 105h-75.4zM16 151v18h202.2c-3-6.1-6.3-12.1-9.9-18H16zm320 82c-12.8 0-23 10.2-23 23s10.2 23 23 23 23-10.2 23-23-10.2-23-23-23zm40 14c.6 2.9 1 5.9 1 9 0 3.1-.4 6.1-1 9h120v-18h-120zM16 343v18h192.3c3.6-5.9 6.9-11.9 9.9-18H16z" fill="#000000" stroke="#000000" stroke-width="8" stroke-linejoin="round"/>
      </g>
      <text x="1517.5" y="373.0" font-family="Arial" font-size="12" font-weight="bold" text-anchor="end" fill="blue">8</text>
      <text x="1517.5" y="403.0" font-family="Arial" font-size="12" font-weight="bold" text-anchor="end" fill="blue">9</text>
      <text x="1602.5" y="388.0" font-family="Arial" font-size="12" font-weight="bold" text-anchor="start" fill="green">10</text>
      <text x="1560" y="445" font-family="Arial" font-size="13" font-weight="bold" text-anchor="middle" fill="black">C</text>
    </g>
    <g>
      <g transform="translate(1520, 450) scale(0.15625, 0.15625)">
        <path d="M116.6 105c40 45.9 60.4 98.4 60.4 151 0 52.6-20.4 105.1-60.4 151H192c34.1 0 81.9-34 119.3-71.4 18.7-18.6 35.1-37.9 46.6-53.3 5.8-7.6 10.4-14.4 13.4-19.4 1.4-2.5 2.5-4.7 3.2-6.1.1-.4.2-.5.2-.8 0-.3-.1-.5-.2-.9-.6-1.4-1.7-3.5-3.2-6-3-5.1-7.5-11.8-13.2-19.5-11.3-15.4-27.5-34.6-46.1-53.2C274.8 139 227.1 105 192 105h-75.4zM16 151v18h202.2c-3-6.1-6.3-12.1-9.9-18H16zm320 82c-12.8 0-23 10.2-23 23s10.2 23 23 23 23-10.2 23-23-10.2-23-23-23zm40 14c.6 2.9 1 5.9 1 9 0 3.1-.4 6.1-1 9h120v-18h-120zM16 343v18h192.3c3.6-5.9 6.9-11.9 9.9-18H16z" fill="#000000" stroke="#000000" stroke-width="8" stroke-linejoin="round"/>
      </g>
      <text x="1517.5" y="473.0" font-family="Arial" font-size="12" font-weight="bold" text-anchor="end" fill="blue">11</text>
      <text x="1517.5" y="503.0" font-family="Arial" font-size="12" font-weight="bold" text-anchor="end" fill="blue">12</text>
      <text x="1602.5" y="488.0" font-family="Arial" font-size="12" font-weight="bold" text-anchor="start" fill="green">13</text>
      <text x="1560" y="545" font-family="Arial" font-size="13" font-weight="bold" text-anchor="middle" fill="black">D</text>
    </g>
    <text x="1460" y="570" font-family="Arial" font-size="12" fill="red">VCC:14</text>
    <text x="1600" y="570" font-family="Arial" font-size="12" fill="blue">GND:7</text>
    <rect x="1450" y="652" width="220" height="480" fill="none" stroke="black" stroke-width="2" rx="5"/>
    <text x="1560" y="677" font-family="Arial" font-size="16" font-weight="bold" text-anchor="middle" fill="black">74LS00</text>
    <g>
      <g transform="translate(1520, 702) scale(0.15625, 0.15625)">
        <path d="M105 105v302h151c148 0 148-302 0-302H105zm-89 46v18h150v-18H16zm374 82c-12.8 0-23 10.2-23 23s10.2 23 23 23 23-10.2 23-23-10.2-23-23-23zm40 14c.6 2.9 1 5.9 1 9 0 3.1-.4 6.1-1 9h66v-18h-66zM16 343v18h150v-18H16z" fill="#000000" stroke="#000000" stroke-width="8" stroke-linejoin="round"/>
      </g>
      <text x="1517.5" y="725.0" font-family="Arial" font-size="12" font-weight="bold" text-anchor="end" fill="blue">1</text>
      <text x="1517.5" y="755.0" font-family="Arial" font-size="12" font-weight="bold" text-anchor="end" fill="blue">2</text>
      <text x="1602.5" y="740.0" font-family="Arial" font-size="12" font-weight="bold" text-anchor="start" fill="green">3</text>
      <text x="1560" y="797" font-family="Arial" font-size="13" font-weight="bold" text-anchor="middle" fill="black">A</text>
    </g>
    <g>
      <g transform="translate(1520, 802) scale(0.15625, 0.15625)">
        <path d="M105 105v302h151c148 0 148-302 0-302H105zm-89 46v18h150v-18H16zm374 82c-12.8 0-23 10.2-23 23s10.2 23 23 23 23-10.2 23-23-10.2-23-23-23zm40 14c.6 2.9 1 5.9 1 9 0 3.1-.4 6.1-1 9h66v-18h-66zM16 343v18h150v-18H16z" fill="#000000" stroke="#000000" stroke-width="8" stroke-linejoin="round"/>
      </g>
      <text x="1517.5" y="825.0" font-family="Arial" font-size="12" font-weight="bold" text-anchor="end" fill="blue">4</text>
      <text x="1517.5" y="855.0" font-family="Arial" font-size="12" font-weight="bold" text-anchor="end" fill="blue">5</text>
      <text x="1602.5" y="840.0" font-family="Arial" font-size="12" font-weight="bold" text-anchor="start" fill="green">6</text>
      <text x="1560" y="897" font-family="Arial" font-size="13" font-weight="bold" text-anchor="middle" fill="black">B</text>
    </g>
    <g>
      <g transform="translate(1520, 902) scale(0.15625, 0.15625)">
        <path d="M105 105v302h151c148 0 148-302 0-302H105zm-89 46v18h150v-18H16zm374 82c-12.8 0-23 10.2-23 23s10.2 23 23 23 23-10.2 23-23-10.2-23-23-23zm40 14c.6 2.9 1 5.9 1 9 0 3.1-.4 6.1-1 9h66v-18h-66zM16 343v18h150v-18H16z" fill="#000000" stroke="#000000" stroke-width="8" stroke-linejoin="round"/>
      </g>
      <text x="1517.5" y="925.0" font-family="Arial" font-size="12" font-weight="bold" text-anchor="end" fill="blue">9</text>
      <text x="1517.5" y="955.0" font-family="Arial" font-size="12" font-weight="bold" text-anchor="end" fill="blue">10</text>
      <text x="1602.5" y="940.0" font-family="Arial" font-size="12" font-weight="bold" text-anchor="start" fill="green">8</text>
      <text x="1560" y="997" font-family="Arial" font-size="13" font-weight="bold" text-anchor="middle" fill="black">C</text>
    </g>
    <g>
      <g transform="translate(1520, 1002) scale(0.15625, 0.15625)">
        <path d="M105 105v302h151c148 0 148-302 0-302H105zm-89 46v18h150v-18H16zm374 82c-12.8 0-23 10.2-23 23s10.2 23 23 23 23-10.2 23-23-10.2-23-23-23zm40 14c.6 2.9 1 5.9 1 9 0 3.1-.4 6.1-1 9h66v-18h-66zM16 343v18h150v-18H16z" fill="#000000" stroke="#000000" stroke-width="8" stroke-linejoin="round"/>
      </g>
      <text x="1517.5" y="1025.0" font-family="Arial" font-size="12" font-weight="bold" text-anchor="end" fill="blue">12</text>
      <text x="1517.5" y="1055.0" font-family="Arial" font-size="12" font-weight="bold" text-anchor="end" fill="blue">13</text>
      <text x="1602.5" y="1040.0" font-family="Arial" font-size="12" font-weight="bold" text-anchor="start" fill="green">11</text>
      <text x="1560" y="1097" font-family="Arial" font-size="13" font-weight="bold" text-anchor="middle" fill="black">D</text>
    </g>
    <text x="1460" y="1122" font-family="Arial" font-size="12" fill="red">VCC:14</text>
    <text x="1600" y="1122" font-family="Arial" font-size="12" fill="blue">GND:7</text>
    <rect x="1850" y="100" width="270.0" height="440.0" fill="none" stroke="black" stroke-width="2" rx="5"/>
    <text x="1985.0" y="125" font-family="Arial" font-size="16" font-weight="bold" text-anchor="middle" fill="black">74LS47</text>
    <g transform="translate(1880, 150) scale(1.5)">
      <ns0:g xmlns:ns0="http://www.w3.org/2000/svg">
    <ns0:rect x="20" y="10" width="100" height="220" rx="5" ry="5" fill="#000000" stroke="#000000" stroke-width="2" />
    <ns0:rect x="30" y="40" width="80" height="160" rx="2" ry="2" fill="#333333" stroke="none" />
    <ns0:circle cx="30" cy="30" r="4" fill="#CCCCCC" stroke="none" />
    <ns0:path d="M 60 10 A 10 10 0 0 0 80 10" fill="none" stroke="#808080" stroke-width="2" />
    <ns0:text x="70" y="120" font-family="monospace" font-size="12" text-anchor="middle" alignment-baseline="middle" fill="#FFFFFF" />
    
    <ns0:path d="M0 30 H20 M0 55 H20 M0 80 H20 M0 105 H20 M0 130 H20 M0 155 H20 M0 180 H20 M0 205 H20" stroke="#000000" stroke-width="2" />
    
    <ns0:path d="M120 205 H140 M120 180 H140 M120 155 H140 M120 130 H140 M120 105 H140 M120 80 H140 M120 55 H140 M120 30 H140" stroke="#000000" stroke-width="2" />
  </ns0:g>

    </g>
    <text x="1868.0" y="199.0" font-family="Arial" font-size="10" font-weight="bold" text-anchor="end" fill="#2196F3">1</text>
    <text x="1868.0" y="236.5" font-family="Arial" font-size="10" font-weight="bold" text-anchor="end" fill="#2196F3">2</text>
    <text x="1868.0" y="386.5" font-family="Arial" font-size="10" font-weight="bold" text-anchor="end" fill="#2196F3">6</text>
    <text x="1868.0" y="424.0" font-family="Arial" font-size="10" font-weight="bold" text-anchor="end" fill="#2196F3">7</text>
    <text x="1868.0" y="461.5" font-family="Arial" font-size="10" font-weight="bold" text-anchor="end" fill="#607D8B">GND</text>
    <text x="2102.0" y="199.0" font-family="Arial" font-size="10" font-weight="bold" text-anchor="start" fill="#FF5722">VCC</text>
    <text x="2102.0" y="236.5" font-family="Arial" font-size="10" font-weight="bold" text-anchor="start" fill="#4CAF50">15</text>
    <text x="2102.0" y="274.0" font-family="Arial" font-size="10" font-weight="bold" text-anchor="start" fill="#4CAF50">14</text>
    <text x="2102.0" y="311.5" font-family="Arial" font-size="10" font-weight="bold" text-anchor="start" fill="#4CAF50">13</text>
    <text x="2102.0" y="349.0" font-family="Arial" font-size="10" font-weight="bold" text-anchor="start" fill="#4CAF50">12</text>
    <text x="2102.0" y="386.5" font-family="Arial" font-size="10" font-weight="bold" text-anchor="start" fill="#4CAF50">11</text>
    <text x="2102.0" y="424.0" font-family="Arial" font-size="10" font-weight="bold" text-anchor="start" fill="#4CAF50">10</text>
    <text x="2102.0" y="461.5" font-family="Arial" font-size="10" font-weight="bold" text-anchor="start" fill="#4CAF50">9</text>
    <text x="1860" y="530.0" font-family="Arial" font-size="12" fill="red">VCC:16</text>
    <text x="2050.0" y="530.0" font-family="Arial" font-size="12" fill="blue">GND:8</text>
    <rect x="1850" y="663" width="270.0" height="440.0" fill="none" stroke="black" stroke-width="2" rx="5"/>
    <text x="1985.0" y="688" font-family="Arial" font-size="16" font-weight="bold" text-anchor="middle" fill="black">74LS47</text>
    <g transform="translate(1880, 713) scale(1.5)">
      <ns0:g xmlns:ns0="http://www.w3.org/2000/svg">
    <ns0:rect x="20" y="10" width="100" height="220" rx="5" ry="5" fill="#000000" stroke="#000000" stroke-width="2" />
    <ns0:rect x="30" y="40" width="80" height="160" rx="2" ry="2" fill="#333333" stroke="none" />
    <ns0:circle cx="30" cy="30" r="4" fill="#CCCCCC" stroke="none" />
    <ns0:path d="M 60 10 A 10 10 0 0 0 80 10" fill="none" stroke="#808080" stroke-width="2" />
    <ns0:text x="70" y="120" font-family="monospace" font-size="12" text-anchor="middle" alignment-baseline="middle" fill="#FFFFFF" />
    
    <ns0:path d="M0 30 H20 M0 55 H20 M0 80 H20 M0 105 H20 M0 130 H20 M0 155 H20 M0 180 H20 M0 205 H20" stroke="#000000" stroke-width="2" />
    
    <ns0:path d="M120 205 H140 M120 180 H140 M120 155 H140 M120 130 H140 M120 105 H140 M120 80 H140 M120 55 H140 M120 30 H140" stroke="#000000" stroke-width="2" />
  </ns0:g>

    </g>
    <text x="1868.0" y="762.0" font-family="Arial" font-size="10" font-weight="bold" text-anchor="end" fill="#2196F3">1</text>
    <text x="1868.0" y="799.5" font-family="Arial" font-size="10" font-weight="bold" text-anchor="end" fill="#2196F3">2</text>
    <text x="1868.0" y="949.5" font-family="Arial" font-size="10" font-weight="bold" text-anchor="end" fill="#2196F3">6</text>
    <text x="1868.0" y="987.0" font-family="Arial" font-size="10" font-weight="bold" text-anchor="end" fill="#2196F3">7</text>
    <text x="1868.0" y="1024.5" font-family="Arial" font-size="10" font-weight="bold" text-anchor="end" fill="#607D8B">GND</text>
    <text x="2102.0" y="762.0" font-family="Arial" font-size="10" font-weight="bold" text-anchor="start" fill="#FF5722">VCC</text>
    <text x="2102.0" y="799.5" font-family="Arial" font-size="10" font-weight="bold" text-anchor="start" fill="#4CAF50">15</text>
    <text x="2102.0" y="837.0" font-family="Arial" font-size="10" font-weight="bold" text-anchor="start" fill="#4CAF50">14</text>
    <text x="2102.0" y="874.5" font-family="Arial" font-size="10" font-weight="bold" text-anchor="start" fill="#4CAF50">13</text>
    <text x="2102.0" y="912.0" font-family="Arial" font-size="10" font-weight="bold" text-anchor="start" fill="#4CAF50">12</text>
    <text x="2102.0" y="949.5" font-family="Arial" font-size="10" font-weight="bold" text-anchor="start" fill="#4CAF50">11</text>
    <text x="2102.0" y="987.0" font-family="Arial" font-size="10" font-weight="bold" text-anchor="start" fill="#4CAF50">10</text>
    <text x="2102.0" y="1024.5" font-family="Arial" font-size="10" font-weight="bold" text-anchor="start" fill="#4CAF50">9</text>
    <text x="1860" y="1093.0" font-family="Arial" font-size="12" fill="red">VCC:16</text>
    <text x="2050.0" y="1093.0" font-family="Arial" font-size="12" fill="blue">GND:8</text>
<path id="wire-0" d="M 130 220 L 640 220 L 640 90 L 1840 90 L 1840 420 L 1880.0 420.0" stroke="#e6194b" fill="none" stroke-width="2.5" stroke-linecap="round" stroke-linejoin="round"/>
<path id="wire-1" d="M 130 275 L 180 275 L 180 80 L 1040 80 L 1040 175.0 L 1122.5 175.0" stroke="#3cb44b" fill="none" stroke-width="2.5" stroke-linecap="round" stroke-linejoin="round"/>
<path id="wire-2" d="M 130 275 L 180 275 L 180 80 L 1040 80 L 1040 275.0 L 1122.5 275.0" stroke="#3cb44b" fill="none" stroke-width="2.5" stroke-linecap="round" stroke-linejoin="round"/>
<path id="wire-3" d="M 130 275 L 180 275 L 180 80 L 1040 80 L 1040 375.0 L 1122.5 375.0" stroke="#3cb44b" fill="none" stroke-width="2.5" stroke-linecap="round" stroke-linejoin="round"/>
<path id="wire-4" d="M 130 275 L 180 275 L 180 80 L 1040 80 L 1040 475.0 L 1122.5 475.0" stroke="#3cb44b" fill="none" stroke-width="2.5" stroke-linecap="round" stroke-linejoin="round"/>
<path id="wire-5" d="M 130 330 L 180 330 L 180 290 L 630 290 L 630 190 L 722.5 190.0" stroke="#ffe119" fill="none" stroke-width="2.5" stroke-linecap="round" stroke-linejoin="round"/>
<path id="wire-6" d="M 130 330 L 180 330 L 180 290 L 630 290 L 630 70 L 1030 70 L 1030 200 L 1040 200 L 1040 205.0 L 1122.5 205.0" stroke="#ffe119" fill="none" stroke-width="2.5" stroke-linecap="round" stroke-linejoin="round"/>
<path id="wire-7" d="M 130 385 L 180 385 L 180 340 L 640 340 L 640 290 L 722.5 290.0" stroke="#4363d8" fill="none" stroke-width="2.5" stroke-linecap="round" stroke-linejoin="round"/>
<path id="wire-8" d="M 130 385 L 180 385 L 180 340 L 620 340 L 620 60 L 1020 60 L 1020 300 L 1040 300 L 1040 305.0 L 1122.5 305.0" stroke="#4363d8" fill="none" stroke-width="2.5" stroke-linecap="round" stroke-linejoin="round"/>
<path id="wire-9" d="M 130 385 L 180 385 L 180 340 L 640 340 L 640 790 L 1440 790 L 1440 757.0 L 1522.5 757.0" stroke="#4363d8" fill="none" stroke-width="2.5" stroke-linecap="round" stroke-linejoin="round"/>
<path id="wire-10" d="M 797.5 190.0 L 880 190.0 L 880 400 L 1040 400 L 1040 405.0 L 1122.5 405.0" stroke="#f58231" fill="none" stroke-width="2.5" stroke-linecap="round" stroke-linejoin="round"/>
<path id="wire-11" d="M 797.5 190.0 L 880 190.0 L 880 400 L 1030 400 L 1030 590 L 1440 590 L 1440 375.0 L 1522.5 375.0" stroke="#f58231" fill="none" stroke-width="2.5" stroke-linecap="round" stroke-linejoin="round"/>
<path id="wire-12" d="M 797.5 290.0 L 1010 290 L 1010 500 L 1040 500 L 1040 505.0 L 1122.5 505.0" stroke="#911eb4" fill="none" stroke-width="2.5" stroke-linecap="round" stroke-linejoin="round"/>
<path id="wire-13" d="M 797.5 290.0 L 1010 290 L 1010 50 L 1440 50 L 1440 175.0 L 1522.5 175.0" stroke="#911eb4" fill="none" stroke-width="2.5" stroke-linecap="round" stroke-linejoin="round"/>
<path id="wire-14" d="M 1197.5 190.0 L 1440 190 L 1440 205.0 L 1522.5 205.0" stroke="#46f0f0" fill="none" stroke-width="2.5" stroke-linecap="round" stroke-linejoin="round"/>
<path id="wire-15" d="M 1197.5 290.0 L 1280 290.0 L 1280 480 L 1440 480 L 1440 475.0 L 1522.5 475.0" stroke="#f032e6" fill="none" stroke-width="2.5" stroke-linecap="round" stroke-linejoin="round"/>
<path id="wire-16" d="M 1597.5 290.0 L 1680 290.0 L 1680 600 L 1430 600 L 1430 500 L 1440 500 L 1440 505.0 L 1522.5 505.0" stroke="#bcf60c" fill="none" stroke-width="2.5" stroke-linecap="round" stroke-linejoin="round"/>
<path id="wire-17" d="M 1197.5 190.0 L 1420 190 L 1420 730 L 1440 730 L 1440 727.0 L 1522.5 727.0" stroke="#46f0f0" fill="none" stroke-width="2.5" stroke-linecap="round" stroke-linejoin="round"/>
<path id="wire-18" d="M 1197.5 390.0 L 1430 390 L 1430 300 L 1440 300 L 1440 305.0 L 1522.5 305.0" stroke="#fabebe" fill="none" stroke-width="2.5" stroke-linecap="round" stroke-linejoin="round"/>
<path id="wire-19" d="M 797.5 290.0 L 1010 290 L 1010 50 L 1440 50 L 1440 180 L 1430 180 L 1430 280 L 1440 280 L 1440 275.0 L 1522.5 275.0" stroke="#911eb4" fill="none" stroke-width="2.5" stroke-linecap="round" stroke-linejoin="round"/>
<path id="wire-20" d="M 1197.5 490.0 L 1430 490 L 1430 400 L 1440 400 L 1440 405.0 L 1522.5 405.0" stroke="#008080" fill="none" stroke-width="2.5" stroke-linecap="round" stroke-linejoin="round"/>
<path id="wire-21" d="M 1597.5 742.0 L 1680 742.0 L 1680 640 L 880 640 L 880 800 L 630 800 L 630 390 L 722.5 390.0" stroke="#e6beff" fill="none" stroke-width="2.5" stroke-linecap="round" stroke-linejoin="round"/>
<path id="wire-22" d="M 797.5 390.0 L 1000 390 L 1000 610 L 1830 610 L 1830 200 L 1840 200 L 1840 195.0 L 1880.0 195.0" stroke="#9a6324" fill="none" stroke-width="2.5" stroke-linecap="round" stroke-linejoin="round"/>
<path id="wire-23" d="M 1597.5 190.0 L 1680 190.0 L 1680 280 L 1820 280 L 1820 980 L 1840 980 L 1840 983.0 L 1880.0 983.0" stroke="#fffac8" fill="none" stroke-width="2.5" stroke-linecap="round" stroke-linejoin="round"/>
<path id="wire-24" d="M 1597.5 390.0 L 1810 390 L 1810 230 L 1840 230 L 1840 232.5 L 1880.0 232.5" stroke="#800000" fill="none" stroke-width="2.5" stroke-linecap="round" stroke-linejoin="round"/>
<path id="wire-25" d="M 1597.5 490.0 L 1800 490 L 1800 380 L 1840 380 L 1840 382.5 L 1880.0 382.5" stroke="#aaffc3" fill="none" stroke-width="2.5" stroke-linecap="round" stroke-linejoin="round"/>
<path id="wire-26" d="M 2090.0 307.5 L 2130 307.5 L 2130 130 L 2260 130 L 2260 127.5 L 2320 127.5" stroke="#808000" fill="none" stroke-width="2.5" stroke-linecap="round" stroke-linejoin="round"/>
<path id="wire-27" d="M 2090.0 345.0 L 2130 345.0 L 2130 320 L 2260 320 L 2260 145.0 L 2320 145.0" stroke="#ffd8b1" fill="none" stroke-width="2.5" stroke-linecap="round" stroke-linejoin="round"/>
<path id="wire-28" d="M 2090.0 382.5 L 2130 382.5 L 2130 350 L 2250 350 L 2250 160 L 2260 160 L 2260 162.5 L 2320 162.5" stroke="#000075" fill="none" stroke-width="2.5" stroke-linecap="round" stroke-linejoin="round"/>
<path id="wire-29" d="M 2090.0 420.0 L 2130 420.0 L 2130 390 L 2240 390 L 2240 180 L 2320 180.0" stroke="#808080" fill="none" stroke-width="2.5" stroke-linecap="round" stroke-linejoin="round"/>
<path id="wire-30" d="M 2090.0 457.5 L 2130 457.5 L 2130 430 L 2230 430 L 2230 200 L 2260 200 L 2260 197.5 L 2320 197.5" stroke="#e6194b" fill="none" stroke-width="2.5" stroke-linecap="round" stroke-linejoin="round"/>
<path id="wire-31" d="M 2090.0 232.5 L 2130 232.5 L 2130 230 L 2220 230 L 2220 220 L 2260 220 L 2260 215.0 L 2320 215.0" stroke="#3cb44b" fill="none" stroke-width="2.5" stroke-linecap="round" stroke-linejoin="round"/>
<path id="wire-32" d="M 2090.0 270.0 L 2220 270 L 2220 240 L 2260 240 L 2260 232.5 L 2320 232.5" stroke="#ffe119" fill="none" stroke-width="2.5" stroke-linecap="round" stroke-linejoin="round"/>
<path id="wire-33" d="M 2090.0 870.5 L 2130 870.5 L 2130 470 L 2260 470 L 2260 467.5 L 2320 467.5" stroke="#4363d8" fill="none" stroke-width="2.5" stroke-linecap="round" stroke-linejoin="round"/>
<path id="wire-34" d="M 2090.0 908.0 L 2130 908.0 L 2130 880 L 2260 880 L 2260 485.0 L 2320 485.0" stroke="#f58231" fill="none" stroke-width="2.5" stroke-linecap="round" stroke-linejoin="round"/>
<path id="wire-35" d="M 2090.0 945.5 L 2130 945.5 L 2130 920 L 2250 920 L 2250 500 L 2260 500 L 2260 502.5 L 2320 502.5" stroke="#911eb4" fill="none" stroke-width="2.5" stroke-linecap="round" stroke-linejoin="round"/>
<path id="wire-36" d="M 2090.0 983.0 L 2130 983.0 L 2130 960 L 2240 960 L 2240 520 L 2320 520.0" stroke="#46f0f0" fill="none" stroke-width="2.5" stroke-linecap="round" stroke-linejoin="round"/>
<path id="wire-37" d="M 2090.0 1020.5 L 2130 1020.5 L 2130 990 L 2230 990 L 2230 540 L 2260 540 L 2260 537.5 L 2320 537.5" stroke="#f032e6" fill="none" stroke-width="2.5" stroke-linecap="round" stroke-linejoin="round"/>
<path id="wire-38" d="M 2090.0 795.5 L 2130 795.5 L 2130 800 L 2220 800 L 2220 560 L 2260 560 L 2260 555.0 L 2320 555.0" stroke="#bcf60c" fill="none" stroke-width="2.5" stroke-linecap="round" stroke-linejoin="round"/>
<path id="wire-39" d="M 2090.0 833.0 L 2130 833.0 L 2130 830 L 2210 830 L 2210 570 L 2260 570 L 2260 572.5 L 2320 572.5" stroke="#fabebe" fill="none" stroke-width="2.5" stroke-linecap="round" stroke-linejoin="round"/>
    <rect x="2270" y="50" width="200" height="760" fill="none" stroke="black" stroke-width="2" rx="5"/>
    <text x="2370" y="75" font-family="Arial" font-size="16" font-weight="bold" text-anchor="middle" fill="black">DISPLAYS</text>
    <circle cx="2320" cy="127.5" r="3" fill="#2196F3" stroke="black" stroke-width="1"/>
    <text x="2312" y="131.5" font-family="Arial" font-size="9" font-weight="bold" text-anchor="end" fill="#2196F3">a</text>
    <circle cx="2320" cy="145.0" r="3" fill="#2196F3" stroke="black" stroke-width="1"/>
    <text x="2312" y="149.0" font-family="Arial" font-size="9" font-weight="bold" text-anchor="end" fill="#2196F3">b</text>
    <circle cx="2320" cy="162.5" r="3" fill="#2196F3" stroke="black" stroke-width="1"/>
    <text x="2312" y="166.5" font-family="Arial" font-size="9" font-weight="bold" text-anchor="end" fill="#2196F3">c</text>
    <circle cx="2320" cy="180.0" r="3" fill="#2196F3" stroke="black" stroke-width="1"/>
    <text x="2312" y="184.0" font-family="Arial" font-size="9" font-weight="bold" text-anchor="end" fill="#2196F3">d</text>
    <circle cx="2320" cy="197.5" r="3" fill="#2196F3" stroke="black" stroke-width="1"/>
    <text x="2312" y="201.5" font-family="Arial" font-size="9" font-weight="bold" text-anchor="end" fill="#2196F3">e</text>
    <circle cx="2320" cy="215.0" r="3" fill="#2196F3" stroke="black" stroke-width="1"/>
    <text x="2312" y="219.0" font-family="Arial" font-size="9" font-weight="bold" text-anchor="end" fill="#2196F3">f</text>
    <circle cx="2320" cy="232.5" r="3" fill="#2196F3" stroke="black" stroke-width="1"/>
    <text x="2312" y="236.5" font-family="Arial" font-size="9" font-weight="bold" text-anchor="end" fill="#2196F3">g</text>
    <g transform="translate(2330, 110) scale(0.14948898964073068)">
      <ns0:g xmlns:ns0="http://www.w3.org/2000/svg" id="layer1" transform="translate(-659.49 -986.85)">
  <ns0:g id="g4143">
   <ns0:rect id="rect5967" height="894.14" width="535.16" y="986.85" x="659.49" />
   <ns0:path id="path5709" d="m178.52 60s-30.59 5.557-44.18 12.621c-12.6 6.555-33.13 26.824-33.13 26.824l104.14 48.915 145.16-1.58 55.22-80.469-227.21-6.311zm-86.721 414.19l-26.221 18.4-5.578 287.85 100.97-47.97 8.92-220.35-78.091-37.93zm232.68 278.9l-148.59 0.5-101.57 49.03c0.002 0 17.693 15.28 28 20.54 9.68 4.94 31.04 9.98 31.04 9.98l243.15 0.99-52.03-81.04z" fill-rule="evenodd" transform="translate(659.49 986.85)" fill="#141414" />
   <ns0:path id="path5711" d="m427.82 77.355l-58.38 86.785-9.47 219.32 80.47 53.64 20.52-20.51 14.2-277.7s-7.29-24.26-17.63-36.46c-6.8-8.03-29.71-25.075-29.71-25.075zm-343.97 45.765l-18.932 290.32 28.619 17.57 75.519-45.97 14.2-216.17-99.406-45.75zm108.45 277.69l-83.62 50.49 69.42 34.72 157.79 7.88 92.68-33.54-87.92-58.71-148.35-0.84zm259.19 77.31l-97.83 34.72-7.89 225.63 52.07 83.62s31.57-18.32 41.03-33.13c9.33-14.63 12.62-50.49 12.62-50.49l11.04-244.57-11.04-15.78z" fill-rule="evenodd" transform="translate(659.49 986.85)" fill="#ff4a00" />
  </ns0:g>
 </ns0:g>

    </g>
    <text x="2370" y="270" font-family="Arial" font-size="12" font-weight="bold" text-anchor="middle" fill="#ff4a00">DISP1</text>
    <circle cx="2320" cy="467.5" r="3" fill="#2196F3" stroke="black" stroke-width="1"/>
    <text x="2312" y="471.5" font-family="Arial" font-size="9" font-weight="bold" text-anchor="end" fill="#2196F3">a</text>
    <circle cx="2320" cy="485.0" r="3" fill="#2196F3" stroke="black" stroke-width="1"/>
    <text x="2312" y="489.0" font-family="Arial" font-size="9" font-weight="bold" text-anchor="end" fill="#2196F3">b</text>
    <circle cx="2320" cy="502.5" r="3" fill="#2196F3" stroke="black" stroke-width="1"/>
    <text x="2312" y="506.5" font-family="Arial" font-size="9" font-weight="bold" text-anchor="end" fill="#2196F3">c</text>
    <circle cx="2320" cy="520.0" r="3" fill="#2196F3" stroke="black" stroke-width="1"/>
    <text x="2312" y="524.0" font-family="Arial" font-size="9" font-weight="bold" text-anchor="end" fill="#2196F3">d</text>
    <circle cx="2320" cy="537.5" r="3" fill="#2196F3" stroke="black" stroke-width="1"/>
    <text x="2312" y="541.5" font-family="Arial" font-size="9" font-weight="bold" text-anchor="end" fill="#2196F3">e</text>
    <circle cx="2320" cy="555.0" r="3" fill="#2196F3" stroke="black" stroke-width="1"/>
    <text x="2312" y="559.0" font-family="Arial" font-size="9" font-weight="bold" text-anchor="end" fill="#2196F3">f</text>
    <circle cx="2320" cy="572.5" r="3" fill="#2196F3" stroke="black" stroke-width="1"/>
    <text x="2312" y="576.5" font-family="Arial" font-size="9" font-weight="bold" text-anchor="end" fill="#2196F3">g</text>
    <g transform="translate(2330, 450) scale(0.14948898964073068)">
      <ns0:g xmlns:ns0="http://www.w3.org/2000/svg" id="layer1" transform="translate(-659.49 -986.85)">
  <ns0:g id="g4143">
   <ns0:rect id="rect5967" height="894.14" width="535.16" y="986.85" x="659.49" />
   <ns0:path id="path5709" d="m178.52 60s-30.59 5.557-44.18 12.621c-12.6 6.555-33.13 26.824-33.13 26.824l104.14 48.915 145.16-1.58 55.22-80.469-227.21-6.311zm-86.721 414.19l-26.221 18.4-5.578 287.85 100.97-47.97 8.92-220.35-78.091-37.93zm232.68 278.9l-148.59 0.5-101.57 49.03c0.002 0 17.693 15.28 28 20.54 9.68 4.94 31.04 9.98 31.04 9.98l243.15 0.99-52.03-81.04z" fill-rule="evenodd" transform="translate(659.49 986.85)" fill="#141414" />
   <ns0:path id="path5711" d="m427.82 77.355l-58.38 86.785-9.47 219.32 80.47 53.64 20.52-20.51 14.2-277.7s-7.29-24.26-17.63-36.46c-6.8-8.03-29.71-25.075-29.71-25.075zm-343.97 45.765l-18.932 290.32 28.619 17.57 75.519-45.97 14.2-216.17-99.406-45.75zm108.45 277.69l-83.62 50.49 69.42 34.72 157.79 7.88 92.68-33.54-87.92-58.71-148.35-0.84zm259.19 77.31l-97.83 34.72-7.89 225.63 52.07 83.62s31.57-18.32 41.03-33.13c9.33-14.63 12.62-50.49 12.62-50.49l11.04-244.57-11.04-15.78z" fill-rule="evenodd" transform="translate(659.49 986.85)" fill="#ff4a00" />
  </ns0:g>
 </ns0:g>

    </g>
    <text x="2370" y="610" font-family="Arial" font-size="12" font-weight="bold" text-anchor="middle" fill="#ff4a00">DISP2</text>
</svg>