<?xml version="1.0" encoding="utf-8"?>
<svg width="100px" height="220px" viewBox="0 0 100 220" xmlns="http://www.w3.org/2000/svg">
  <g>
    <rect x="20" y="10" width="60" height="200" rx="5" ry="5" fill="#FFFFFF" stroke="#000000" stroke-width="2"/>
    <path d="M 40 10 A 10 10 0 0 0 60 10" fill="none" stroke="#000000" stroke-width="2"/>
    <text x="50" y="110" font-family="monospace" font-size="12" text-anchor="middle" alignment-baseline="middle">NAME</text>
    <!-- Pins 1-7 (left) -->
    <path d="M0 30 H20 M0 55 H20 M0 80 H20 M0 105 H20 M0 130 H20 M0 155 H20 M0 180 H20" stroke="#000000" stroke-width="2"/>
    <!-- Pins 8-14 (right) -->
    <path d="M80 180 H100 M80 155 H100 M80 130 H100 M80 105 H100 M80 80 H100 M80 55 H100 M80 30 H100" stroke="#000000" stroke-width="2"/>
  </g>
</svg>
