<?xml version="1.0" encoding="UTF-8"?>
<svg width="2650" height="1200" xmlns="http://www.w3.org/2000/svg" xmlns:xlink="http://www.w3.org/1999/xlink" version="1.1">
  <defs>
    <symbol id="NAND2" viewBox="0 0 512 512">
      <path fill="#000000" stroke="#000000" stroke-width="8" stroke-linejoin="round" d="M105 105v302h151c148 0 148-302 0-302H105zm-89 46v18h150v-18H16zm374 82c-12.8 0-23 10.2-23 23s10.2 23 23 23 23-10.2 23-23-10.2-23-23-23zm40 14c.6 2.9 1 5.9 1 9 0 3.1-.4 6.1-1 9h66v-18h-66zM16 343v18h150v-18H16z"/>
    </symbol>
    <symbol id="NOR2" viewBox="0 0 512 512">
      <path fill="#000000" stroke="#000000" stroke-width="8" stroke-linejoin="round" d="M116.6 105c40 45.9 60.4 98.4 60.4 151 0 52.6-20.4 105.1-60.4 151H192c34.1 0 81.9-34 119.3-71.4 18.7-18.6 35.1-37.9 46.6-53.3 5.8-7.6 10.4-14.4 13.4-19.4 1.4-2.5 2.5-4.7 3.2-6.1.1-.4.2-.5.2-.8 0-.3-.1-.5-.2-.9-.6-1.4-1.7-3.5-3.2-6-3-5.1-7.5-11.8-13.2-19.5-11.3-15.4-27.5-34.6-46.1-53.2C274.8 139 227.1 105 192 105h-75.4zM16 151v18h202.2c-3-6.1-6.3-12.1-9.9-18H16zm320 82c-12.8 0-23 10.2-23 23s10.2 23 23 23 23-10.2 23-23-10.2-23-23-23zm40 14c.6 2.9 1 5.9 1 9 0 3.1-.4 6.1-1 9h120v-18h-120zM16 343v18h192.3c3.6-5.9 6.9-11.9 9.9-18H16z"/>
    </symbol>
    <symbol id="LED" viewBox="0 0 512 512">
      <path fill="#000000" stroke="#000000" stroke-width="8" stroke-linejoin="round" d="M 256,80 C 208,80 170,118 170,166 v 100 h 172 V 166 C 342,118 304,80 256,80 Z M 230,266 v 80 h 52 v -80 z M 210,346 v 20 h 92 v -20 z"/>
    </symbol>
  </defs>
  <text x="20" y="30" font-family="Arial" font-size="20" font-weight="bold" fill="black">Circuit Diagram</text>
    <rect x="50" y="150" width="120" height="280" fill="none" stroke="black" stroke-width="2" rx="5"/>
    <text x="110" y="175" font-family="Arial" font-size="16" font-weight="bold" text-anchor="middle" fill="black">INPUTS</text>
    <rect x="90" y="200" width="40" height="40" fill="none" stroke="black" stroke-width="2"/>
    <text x="110" y="225" font-family="Arial" font-size="16" font-weight="bold" text-anchor="middle" fill="black">A0</text>
    <rect x="90" y="255" width="40" height="40" fill="none" stroke="black" stroke-width="2"/>
    <text x="110" y="280" font-family="Arial" font-size="16" font-weight="bold" text-anchor="middle" fill="black">A1</text>
    <rect x="90" y="310" width="40" height="40" fill="none" stroke="black" stroke-width="2"/>
    <text x="110" y="335" font-family="Arial" font-size="16" font-weight="bold" text-anchor="middle" fill="black">A2</text>
    <rect x="90" y="365" width="40" height="40" fill="none" stroke="black" stroke-width="2"/>
    <text x="110" y="390" font-family="Arial" font-size="16" font-weight="bold" text-anchor="middle" fill="black">A3</text>
    <rect x="1050" y="100" width="220" height="480" fill="none" stroke="black" stroke-width="2" rx="5"/>
    <text x="1160" y="125" font-family="Arial" font-size="16" font-weight="bold" text-anchor="middle" fill="black">74LS02</text>
    <g>
      <g transform="translate(1120, 150) scale(0.15625, 0.15625)">
        <path d="M116.6 105c40 45.9 60.4 98.4 60.4 151 0 52.6-20.4 105.1-60.4 151H192c34.1 0 81.9-34 119.3-71.4 18.7-18.6 35.1-37.9 46.6-53.3 5.8-7.6 10.4-14.4 13.4-19.4 1.4-2.5 2.5-4.7 3.2-6.1.1-.4.2-.5.2-.8 0-.3-.1-.5-.2-.9-.6-1.4-1.7-3.5-3.2-6-3-5.1-7.5-11.8-13.2-19.5-11.3-15.4-27.5-34.6-46.1-53.2C274.8 139 227.1 105 192 105h-75.4zM16 151v18h202.2c-3-6.1-6.3-12.1-9.9-18H16zm320 82c-12.8 0-23 10.2-23 23s10.2 23 23 23 23-10.2 23-23-10.2-23-23-23zm40 14c.6 2.9 1 5.9 1 9 0 3.1-.4 6.1-1 9h120v-18h-120zM16 343v18h192.3c3.6-5.9 6.9-11.9 9.9-18H16z" fill="#000000" stroke="#000000" stroke-width="8" stroke-linejoin="round"/>
      </g>
      <text x="1117.5" y="173.0" font-family="Arial" font-size="12" font-weight="bold" text-anchor="end" fill="blue">1</text>
      <text x="1117.5" y="203.0" font-family="Arial" font-size="12" font-weight="bold" text-anchor="end" fill="blue">2</text>
      <text x="1202.5" y="188.0" font-family="Arial" font-size="12" font-weight="bold" text-anchor="start" fill="green">3</text>
      <text x="1160" y="245" font-family="Arial" font-size="13" font-weight="bold" text-anchor="middle" fill="black">A</text>
    </g>
    <g>
      <g transform="translate(1120, 250) scale(0.15625, 0.15625)">
        <path d="M116.6 105c40 45.9 60.4 98.4 60.4 151 0 52.6-20.4 105.1-60.4 151H192c34.1 0 81.9-34 119.3-71.4 18.7-18.6 35.1-37.9 46.6-53.3 5.8-7.6 10.4-14.4 13.4-19.4 1.4-2.5 2.5-4.7 3.2-6.1.1-.4.2-.5.2-.8 0-.3-.1-.5-.2-.9-.6-1.4-1.7-3.5-3.2-6-3-5.1-7.5-11.8-13.2-19.5-11.3-15.4-27.5-34.6-46.1-53.2C274.8 139 227.1 105 192 105h-75.4zM16 151v18h202.2c-3-6.1-6.3-12.1-9.9-18H16zm320 82c-12.8 0-23 10.2-23 23s10.2 23 23 23 23-10.2 23-23-10.2-23-23-23zm40 14c.6 2.9 1 5.9 1 9 0 3.1-.4 6.1-1 9h120v-18h-120zM16 343v18h192.3c3.6-5.9 6.9-11.9 9.9-18H16z" fill="#000000" stroke="#000000" stroke-width="8" stroke-linejoin="round"/>
      </g>
      <text x="1117.5" y="273.0" font-family="Arial" font-size="12" font-weight="bold" text-anchor="end" fill="blue">5</text>
      <text x="1117.5" y="303.0" font-family="Arial" font-size="12" font-weight="bold" text-anchor="end" fill="blue">6</text>
      <text x="1202.5" y="288.0" font-family="Arial" font-size="12" font-weight="bold" text-anchor="start" fill="green">4</text>
      <text x="1160" y="345" font-family="Arial" font-size="13" font-weight="bold" text-anchor="middle" fill="black">B</text>
    </g>
    <g>
      <g transform="translate(1120, 350) scale(0.15625, 0.15625)">
        <path d="M116.6 105c40 45.9 60.4 98.4 60.4 151 0 52.6-20.4 105.1-60.4 151H192c34.1 0 81.9-34 119.3-71.4 18.7-18.6 35.1-37.9 46.6-53.3 5.8-7.6 10.4-14.4 13.4-19.4 1.4-2.5 2.5-4.7 3.2-6.1.1-.4.2-.5.2-.8 0-.3-.1-.5-.2-.9-.6-1.4-1.7-3.5-3.2-6-3-5.1-7.5-11.8-13.2-19.5-11.3-15.4-27.5-34.6-46.1-53.2C274.8 139 227.1 105 192 105h-75.4zM16 151v18h202.2c-3-6.1-6.3-12.1-9.9-18H16zm320 82c-12.8 0-23 10.2-23 23s10.2 23 23 23 23-10.2 23-23-10.2-23-23-23zm40 14c.6 2.9 1 5.9 1 9 0 3.1-.4 6.1-1 9h120v-18h-120zM16 343v18h192.3c3.6-5.9 6.9-11.9 9.9-18H16z" fill="#000000" stroke="#000000" stroke-width="8" stroke-linejoin="round"/>
      </g>
      <text x="1117.5" y="373.0" font-family="Arial" font-size="12" font-weight="bold" text-anchor="end" fill="blue">8</text>
      <text x="1117.5" y="403.0" font-family="Arial" font-size="12" font-weight="bold" text-anchor="end" fill="blue">9</text>
      <text x="1202.5" y="388.0" font-family="Arial" font-size="12" font-weight="bold" text-anchor="start" fill="green">10</text>
      <text x="1160" y="445" font-family="Arial" font-size="13" font-weight="bold" text-anchor="middle" fill="black">C</text>
    </g>
    <g>
      <g transform="translate(1120, 450) scale(0.15625, 0.15625)">
        <path d="M116.6 105c40 45.9 60.4 98.4 60.4 151 0 52.6-20.4 105.1-60.4 151H192c34.1 0 81.9-34 119.3-71.4 18.7-18.6 35.1-37.9 46.6-53.3 5.8-7.6 10.4-14.4 13.4-19.4 1.4-2.5 2.5-4.7 3.2-6.1.1-.4.2-.5.2-.8 0-.3-.1-.5-.2-.9-.6-1.4-1.7-3.5-3.2-6-3-5.1-7.5-11.8-13.2-19.5-11.3-15.4-27.5-34.6-46.1-53.2C274.8 139 227.1 105 192 105h-75.4zM16 151v18h202.2c-3-6.1-6.3-12.1-9.9-18H16zm320 82c-12.8 0-23 10.2-23 23s10.2 23 23 23 23-10.2 23-23-10.2-23-23-23zm40 14c.6 2.9 1 5.9 1 9 0 3.1-.4 6.1-1 9h120v-18h-120zM16 343v18h192.3c3.6-5.9 6.9-11.9 9.9-18H16z" fill="#000000" stroke="#000000" stroke-width="8" stroke-linejoin="round"/>
      </g>
      <text x="1117.5" y="473.0" font-family="Arial" font-size="12" font-weight="bold" text-anchor="end" fill="blue">12</text>
      <text x="1117.5" y="503.0" font-family="Arial" font-size="12" font-weight="bold" text-anchor="end" fill="blue">13</text>
      <text x="1202.5" y="488.0" font-family="Arial" font-size="12" font-weight="bold" text-anchor="start" fill="green">11</text>
      <text x="1160" y="545" font-family="Arial" font-size="13" font-weight="bold" text-anchor="middle" fill="black">D</text>
    </g>
    <text x="1060" y="570" font-family="Arial" font-size="12" fill="red">VCC:14</text>
    <text x="1200" y="570" font-family="Arial" font-size="12" fill="blue">GND:7</text>
    <rect x="1450" y="100" width="220" height="480" fill="none" stroke="black" stroke-width="2" rx="5"/>
    <text x="1560" y="125" font-family="Arial" font-size="16" font-weight="bold" text-anchor="middle" fill="black">74LS02</text>
    <g>
      <g transform="translate(1520, 150) scale(0.15625, 0.15625)">
        <path d="M116.6 105c40 45.9 60.4 98.4 60.4 151 0 52.6-20.4 105.1-60.4 151H192c34.1 0 81.9-34 119.3-71.4 18.7-18.6 35.1-37.9 46.6-53.3 5.8-7.6 10.4-14.4 13.4-19.4 1.4-2.5 2.5-4.7 3.2-6.1.1-.4.2-.5.2-.8 0-.3-.1-.5-.2-.9-.6-1.4-1.7-3.5-3.2-6-3-5.1-7.5-11.8-13.2-19.5-11.3-15.4-27.5-34.6-46.1-53.2C274.8 139 227.1 105 192 105h-75.4zM16 151v18h202.2c-3-6.1-6.3-12.1-9.9-18H16zm320 82c-12.8 0-23 10.2-23 23s10.2 23 23 23 23-10.2 23-23-10.2-23-23-23zm40 14c.6 2.9 1 5.9 1 9 0 3.1-.4 6.1-1 9h120v-18h-120zM16 343v18h192.3c3.6-5.9 6.9-11.9 9.9-18H16z" fill="#000000" stroke="#000000" stroke-width="8" stroke-linejoin="round"/>
      </g>
      <text x="1517.5" y="173.0" font-family="Arial" font-size="12" font-weight="bold" text-anchor="end" fill="blue">1</text>
      <text x="1517.5" y="203.0" font-family="Arial" font-size="12" font-weight="bold" text-anchor="end" fill="blue">2</text>
      <text x="1602.5" y="188.0" font-family="Arial" font-size="12" font-weight="bold" text-anchor="start" fill="green">3</text>
      <text x="1560" y="245" font-family="Arial" font-size="13" font-weight="bold" text-anchor="middle" fill="black">A</text>
    </g>
    <g>
      <g transform="translate(1520, 250) scale(0.15625, 0.15625)">
        <path d="M116.6 105c40 45.9 60.4 98.4 60.4 151 0 52.6-20.4 105.1-60.4 151H192c34.1 0 81.9-34 119.3-71.4 18.7-18.6 35.1-37.9 46.6-53.3 5.8-7.6 10.4-14.4 13.4-19.4 1.4-2.5 2.5-4.7 3.2-6.1.1-.4.2-.5.2-.8 0-.3-.1-.5-.2-.9-.6-1.4-1.7-3.5-3.2-6-3-5.1-7.5-11.8-13.2-19.5-11.3-15.4-27.5-34.6-46.1-53.2C274.8 139 227.1 105 192 105h-75.4zM16 151v18h202.2c-3-6.1-6.3-12.1-9.9-18H16zm320 82c-12.8 0-23 10.2-23 23s10.2 23 23 23 23-10.2 23-23-10.2-23-23-23zm40 14c.6 2.9 1 5.9 1 9 0 3.1-.4 6.1-1 9h120v-18h-120zM16 343v18h192.3c3.6-5.9 6.9-11.9 9.9-18H16z" fill="#000000" stroke="#000000" stroke-width="8" stroke-linejoin="round"/>
      </g>
      <text x="1517.5" y="273.0" font-family="Arial" font-size="12" font-weight="bold" text-anchor="end" fill="blue">5</text>
      <text x="1517.5" y="303.0" font-family="Arial" font-size="12" font-weight="bold" text-anchor="end" fill="blue">6</text>
      <text x="1602.5" y="288.0" font-family="Arial" font-size="12" font-weight="bold" text-anchor="start" fill="green">4</text>
      <text x="1560" y="345" font-family="Arial" font-size="13" font-weight="bold" text-anchor="middle" fill="black">B</text>
    </g>
    <g>
      <g transform="translate(1520, 350) scale(0.15625, 0.15625)">
        <path d="M116.6 105c40 45.9 60.4 98.4 60.4 151 0 52.6-20.4 105.1-60.4 151H192c34.1 0 81.9-34 119.3-71.4 18.7-18.6 35.1-37.9 46.6-53.3 5.8-7.6 10.4-14.4 13.4-19.4 1.4-2.5 2.5-4.7 3.2-6.1.1-.4.2-.5.2-.8 0-.3-.1-.5-.2-.9-.6-1.4-1.7-3.5-3.2-6-3-5.1-7.5-11.8-13.2-19.5-11.3-15.4-27.5-34.6-46.1-53.2C274.8 139 227.1 105 192 105h-75.4zM16 151v18h202.2c-3-6.1-6.3-12.1-9.9-18H16zm320 82c-12.8 0-23 10.2-23 23s10.2 23 23 23 23-10.2 23-23-10.2-23-23-23zm40 14c.6 2.9 1 5.9 1 9 0 3.1-.4 6.1-1 9h120v-18h-120zM16 343v18h192.3c3.6-5.9 6.9-11.9 9.9-18H16z" fill="#000000" stroke="#000000" stroke-width="8" stroke-linejoin="round"/>
      </g>
      <text x="1517.5" y="373.0" font-family="Arial" font-size="12" font-weight="bold" text-anchor="end" fill="blue">8</text>
      <text x="1517.5" y="403.0" font-family="Arial" font-size="12" font-weight="bold" text-anchor="end" fill="blue">9</text>
      <text x="1602.5" y="388.0" font-family="Arial" font-size="12" font-weight="bold" text-anchor="start" fill="green">10</text>
      <text x="1560" y="445" font-family="Arial" font-size="13" font-weight="bold" text-anchor="middle" fill="black">C</text>
    </g>
    <g>
      <g transform="translate(1520, 450) scale(0.15625, 0.15625)">
        <path d="M116.6 105c40 45.9 60.4 98.4 60.4 151 0 52.6-20.4 105.1-60.4 151H192c34.1 0 81.9-34 119.3-71.4 18.7-18.6 35.1-37.9 46.6-53.3 5.8-7.6 10.4-14.4 13.4-19.4 1.4-2.5 2.5-4.7 3.2-6.1.1-.4.2-.5.2-.8 0-.3-.1-.5-.2-.9-.6-1.4-1.7-3.5-3.2-6-3-5.1-7.5-11.8-13.2-19.5-11.3-15.4-27.5-34.6-46.1-53.2C274.8 139 227.1 105 192 105h-75.4zM16 151v18h202.2c-3-6.1-6.3-12.1-9.9-18H16zm320 82c-12.8 0-23 10.2-23 23s10.2 23 23 23 23-10.2 23-23-10.2-23-23-23zm40 14c.6 2.9 1 5.9 1 9 0 3.1-.4 6.1-1 9h120v-18h-120zM16 343v18h192.3c3.6-5.9 6.9-11.9 9.9-18H16z" fill="#000000" stroke="#000000" stroke-width="8" stroke-linejoin="round"/>
      </g>
      <text x="1517.5" y="473.0" font-family="Arial" font-size="12" font-weight="bold" text-anchor="end" fill="blue">12</text>
      <text x="1517.5" y="503.0" font-family="Arial" font-size="12" font-weight="bold" text-anchor="end" fill="blue">13</text>
      <text x="1602.5" y="488.0" font-family="Arial" font-size="12" font-weight="bold" text-anchor="start" fill="green">11</text>
      <text x="1560" y="545" font-family="Arial" font-size="13" font-weight="bold" text-anchor="middle" fill="black">D</text>
    </g>
    <text x="1460" y="570" font-family="Arial" font-size="12" fill="red">VCC:14</text>
    <text x="1600" y="570" font-family="Arial" font-size="12" fill="blue">GND:7</text>
    <rect x="1850" y="100" width="220" height="480" fill="none" stroke="black" stroke-width="2" rx="5"/>
    <text x="1960" y="125" font-family="Arial" font-size="16" font-weight="bold" text-anchor="middle" fill="black">74LS00</text>
    <g>
      <g transform="translate(1920, 150) scale(0.15625, 0.15625)">
        <path d="M105 105v302h151c148 0 148-302 0-302H105zm-89 46v18h150v-18H16zm374 82c-12.8 0-23 10.2-23 23s10.2 23 23 23 23-10.2 23-23-10.2-23-23-23zm40 14c.6 2.9 1 5.9 1 9 0 3.1-.4 6.1-1 9h66v-18h-66zM16 343v18h150v-18H16z" fill="#000000" stroke="#000000" stroke-width="8" stroke-linejoin="round"/>
      </g>
      <text x="1917.5" y="173.0" font-family="Arial" font-size="12" font-weight="bold" text-anchor="end" fill="blue">1</text>
      <text x="1917.5" y="203.0" font-family="Arial" font-size="12" font-weight="bold" text-anchor="end" fill="blue">2</text>
      <text x="2002.5" y="188.0" font-family="Arial" font-size="12" font-weight="bold" text-anchor="start" fill="green">3</text>
      <text x="1960" y="245" font-family="Arial" font-size="13" font-weight="bold" text-anchor="middle" fill="black">A</text>
    </g>
    <g>
      <g transform="translate(1920, 250) scale(0.15625, 0.15625)">
        <path d="M105 105v302h151c148 0 148-302 0-302H105zm-89 46v18h150v-18H16zm374 82c-12.8 0-23 10.2-23 23s10.2 23 23 23 23-10.2 23-23-10.2-23-23-23zm40 14c.6 2.9 1 5.9 1 9 0 3.1-.4 6.1-1 9h66v-18h-66zM16 343v18h150v-18H16z" fill="#000000" stroke="#000000" stroke-width="8" stroke-linejoin="round"/>
      </g>
      <text x="1917.5" y="273.0" font-family="Arial" font-size="12" font-weight="bold" text-anchor="end" fill="blue">4</text>
      <text x="1917.5" y="303.0" font-family="Arial" font-size="12" font-weight="bold" text-anchor="end" fill="blue">5</text>
      <text x="2002.5" y="288.0" font-family="Arial" font-size="12" font-weight="bold" text-anchor="start" fill="green">6</text>
      <text x="1960" y="345" font-family="Arial" font-size="13" font-weight="bold" text-anchor="middle" fill="black">B</text>
    </g>
    <g>
      <g transform="translate(1920, 350) scale(0.15625, 0.15625)">
        <path d="M105 105v302h151c148 0 148-302 0-302H105zm-89 46v18h150v-18H16zm374 82c-12.8 0-23 10.2-23 23s10.2 23 23 23 23-10.2 23-23-10.2-23-23-23zm40 14c.6 2.9 1 5.9 1 9 0 3.1-.4 6.1-1 9h66v-18h-66zM16 343v18h150v-18H16z" fill="#000000" stroke="#000000" stroke-width="8" stroke-linejoin="round"/>
      </g>
      <text x="1917.5" y="373.0" font-family="Arial" font-size="12" font-weight="bold" text-anchor="end" fill="blue">9</text>
      <text x="1917.5" y="403.0" font-family="Arial" font-size="12" font-weight="bold" text-anchor="end" fill="blue">10</text>
      <text x="2002.5" y="388.0" font-family="Arial" font-size="12" font-weight="bold" text-anchor="start" fill="green">8</text>
      <text x="1960" y="445" font-family="Arial" font-size="13" font-weight="bold" text-anchor="middle" fill="black">C</text>
    </g>
    <g>
      <g transform="translate(1920, 450) scale(0.15625, 0.15625)">
        <path d="M105 105v302h151c148 0 148-302 0-302H105zm-89 46v18h150v-18H16zm374 82c-12.8 0-23 10.2-23 23s10.2 23 23 23 23-10.2 23-23-10.2-23-23-23zm40 14c.6 2.9 1 5.9 1 9 0 3.1-.4 6.1-1 9h66v-18h-66zM16 343v18h150v-18H16z" fill="#000000" stroke="#000000" stroke-width="8" stroke-linejoin="round"/>
      </g>
      <text x="1917.5" y="473.0" font-family="Arial" font-size="12" font-weight="bold" text-anchor="end" fill="blue">12</text>
      <text x="1917.5" y="503.0" font-family="Arial" font-size="12" font-weight="bold" text-anchor="end" fill="blue">13</text>
      <text x="2002.5" y="488.0" font-family="Arial" font-size="12" font-weight="bold" text-anchor="start" fill="green">11</text>
      <text x="1960" y="545" font-family="Arial" font-size="13" font-weight="bold" text-anchor="middle" fill="black">D</text>
    </g>
    <text x="1860" y="570" font-family="Arial" font-size="12" fill="red">VCC:14</text>
    <text x="2000" y="570" font-family="Arial" font-size="12" fill="blue">GND:7</text>
<path id="wire-0" d="M 130 220 L 180 220 L 180 40 L 2375 40 L 2375 114.2578125" stroke="#e6194b" fill="none" stroke-width="2.5" stroke-linecap="round" stroke-linejoin="round"/>
<path id="wire-1" d="M 130 275 L 180 275 L 180 230 L 1040 230 L 1040 205.0 L 1122.5 205.0" stroke="#3cb44b" fill="none" stroke-width="2.5" stroke-linecap="round" stroke-linejoin="round"/>
<path id="wire-2" d="M 130 275 L 180 275 L 180 280 L 1040 280 L 1040 275.0 L 1122.5 275.0" stroke="#3cb44b" fill="none" stroke-width="2.5" stroke-linecap="round" stroke-linejoin="round"/>
<path id="wire-3" d="M 130 275 L 180 275 L 180 280 L 1040 280 L 1040 375.0 L 1122.5 375.0" stroke="#3cb44b" fill="none" stroke-width="2.5" stroke-linecap="round" stroke-linejoin="round"/>
<path id="wire-4" d="M 130 275 L 180 275 L 180 280 L 1040 280 L 1040 590 L 1280 590 L 1280 490 L 1197.5 490.0" stroke="#3cb44b" fill="none" stroke-width="2.5" stroke-linecap="round" stroke-linejoin="round"/>
<path id="wire-6" d="M 130 330 L 180 330 L 180 290 L 1030 290 L 1030 90 L 1280 90 L 1280 190 L 1197.5 190.0" stroke="#ffe119" fill="none" stroke-width="2.5" stroke-linecap="round" stroke-linejoin="round"/>
<path id="wire-8" d="M 130 385 L 180 385 L 180 340 L 1030 340 L 1030 300 L 1040 300 L 1040 305.0 L 1122.5 305.0" stroke="#4363d8" fill="none" stroke-width="2.5" stroke-linecap="round" stroke-linejoin="round"/>
<path id="wire-9" d="M 130 385 L 180 385 L 180 340 L 1020 340 L 1020 80 L 1840 80 L 1840 205.0 L 1922.5 205.0" stroke="#4363d8" fill="none" stroke-width="2.5" stroke-linecap="round" stroke-linejoin="round"/>
<path id="wire-14" d="M 1122.5 175.0 L 1040 175.0 L 1040 70 L 1680 70 L 1680 190 L 1597.5 190.0" stroke="#46f0f0" fill="none" stroke-width="2.5" stroke-linecap="round" stroke-linejoin="round"/>
<path id="wire-15" d="M 1122.5 175.0 L 1040 175.0 L 1040 70 L 1680 70 L 1680 180 L 1840 180 L 1840 175.0 L 1922.5 175.0" stroke="#46f0f0" fill="none" stroke-width="2.5" stroke-linecap="round" stroke-linejoin="round"/>
<path id="wire-16" d="M 1197.5 390.0 L 1280 390.0 L 1280 480 L 1440 480 L 1440 590 L 1680 590 L 1680 490 L 1597.5 490.0" stroke="#f032e6" fill="none" stroke-width="2.5" stroke-linecap="round" stroke-linejoin="round"/>
<path id="wire-17" d="M 1122.5 505.0 L 1040 505.0 L 1040 500 L 1030 500 L 1030 600 L 1430 600 L 1430 400 L 1440 400 L 1440 405.0 L 1522.5 405.0" stroke="#bcf60c" fill="none" stroke-width="2.5" stroke-linecap="round" stroke-linejoin="round"/>
<path id="wire-20" d="M 1522.5 175.0 L 1440 175.0 L 1440 30 L 2460 30 L 2460 254.2578125 L 2375 254.2578125" stroke="#e6beff" fill="none" stroke-width="2.5" stroke-linecap="round" stroke-linejoin="round"/>
<path id="wire-21" d="M 1597.5 390.0 L 1840 390 L 1840 590 L 2460 590 L 2460 324.2578125 L 2375 324.2578125" stroke="#9a6324" fill="none" stroke-width="2.5" stroke-linecap="round" stroke-linejoin="round"/>
<path id="wire-22" d="M 1522.5 505.0 L 1440 505.0 L 1440 500 L 1420 500 L 1420 610 L 2380 610 L 2380 470 L 2375 470 L 2375 394.2578125" stroke="#fffac8" fill="none" stroke-width="2.5" stroke-linecap="round" stroke-linejoin="round"/>
    <rect x="2300" y="50" width="150" height="410" fill="none" stroke="black" stroke-width="2" rx="5"/>
    <text x="2375" y="75" font-family="Arial" font-size="16" font-weight="bold" text-anchor="middle" fill="black">OUTPUTS</text>
    <g transform="rotate(180, 2375, 125)">
      <g transform="translate(2350, 100) scale(0.09765625, 0.09765625)">
        <path d="M 256,80 C 208,80 170,118 170,166 v 100 h 172 V 166 C 342,118 304,80 256,80 Z M 230,266 v 80 h 52 v -80 z M 210,346 v 20 h 92 v -20 z" fill="#000000" stroke="#000000" stroke-width="8" stroke-linejoin="round"/>
      </g>
    </g>
    <text x="2375" y="165" font-family="Arial" font-size="12" font-weight="bold" text-anchor="middle" fill="green">B0</text>
    <g transform="rotate(180, 2375, 195)">
      <g transform="translate(2350, 170) scale(0.09765625, 0.09765625)">
        <path d="M 256,80 C 208,80 170,118 170,166 v 100 h 172 V 166 C 342,118 304,80 256,80 Z M 230,266 v 80 h 52 v -80 z M 210,346 v 20 h 92 v -20 z" fill="#000000" stroke="#000000" stroke-width="8" stroke-linejoin="round"/>
      </g>
    </g>
    <text x="2375" y="235" font-family="Arial" font-size="12" font-weight="bold" text-anchor="middle" fill="green">B3</text>
    <g transform="rotate(180, 2375, 265)">
      <g transform="translate(2350, 240) scale(0.09765625, 0.09765625)">
        <path d="M 256,80 C 208,80 170,118 170,166 v 100 h 172 V 166 C 342,118 304,80 256,80 Z M 230,266 v 80 h 52 v -80 z M 210,346 v 20 h 92 v -20 z" fill="#000000" stroke="#000000" stroke-width="8" stroke-linejoin="round"/>
      </g>
    </g>
    <text x="2375" y="305" font-family="Arial" font-size="12" font-weight="bold" text-anchor="middle" fill="green">C0</text>
    <g transform="rotate(180, 2375, 335)">
      <g transform="translate(2350, 310) scale(0.09765625, 0.09765625)">
        <path d="M 256,80 C 208,80 170,118 170,166 v 100 h 172 V 166 C 342,118 304,80 256,80 Z M 230,266 v 80 h 52 v -80 z M 210,346 v 20 h 92 v -20 z" fill="#000000" stroke="#000000" stroke-width="8" stroke-linejoin="round"/>
      </g>
    </g>
    <text x="2375" y="375" font-family="Arial" font-size="12" font-weight="bold" text-anchor="middle" fill="green">B2</text>
    <g transform="rotate(180, 2375, 405)">
      <g transform="translate(2350, 380) scale(0.09765625, 0.09765625)">
        <path d="M 256,80 C 208,80 170,118 170,166 v 100 h 172 V 166 C 342,118 304,80 256,80 Z M 230,266 v 80 h 52 v -80 z M 210,346 v 20 h 92 v -20 z" fill="#000000" stroke="#000000" stroke-width="8" stroke-linejoin="round"/>
      </g>
    </g>
    <text x="2375" y="445" font-family="Arial" font-size="12" font-weight="bold" text-anchor="middle" fill="green">B1</text>
</svg>